<svg id="Layer_1" data-name="Layer 1" xmlns="http://www.w3.org/2000/svg" viewBox="0 0 755 461.72"><defs><style>.cls-1{fill:#fff;}</style></defs><path class="cls-1" d="M525.5,284.86c6.85,17.31,7.33,34.84,5.47,52.35-.76,7.16-3.55,14.28-6.37,21-5.31,12.71-11.42,25.1-17,37.71-4.4,9.93-11.38,17.47-19.9,24.1-15.69,12.19-32.07,23.06-51.6,27.82-17.94,4.38-36,8.25-54.15,11.75a105.49,105.49,0,0,1-44.19-.46,76.26,76.26,0,0,1-19.8-7.9c-23.79-13.38-46.54-28.4-61.8-51.76-10.41-15.93-19.38-32.8-28.42-48.25-15.87,6.14-31.91,12.81-48.28,18.57-17.3,6.08-35.12,4.41-52.92,2-29.22-3.91-52.73-20.29-76.49-35.58-15.9-10.23-25.87-26-31.2-44.14S8.58,255.56,4,237.13c-6.19-25.07-5.06-50,2.18-74.82,3.87-13.31,7.39-26.56,14.65-38.63,7.5-12.47,17.18-21.45,31.76-24.81C71.89,94.42,90.94,88.94,110.3,85c16.32-3.35,33.13-4.46,49.38.05,16.87,4.69,32.65,12.31,47.92,21,13.73,7.85,26.79,16.33,37.11,28.58.94,1.12,4.15,1.17,5.94.59,30.19-9.83,60.65-17.88,92.86-15.84,18.81,1.19,37.13,4.71,54.74,11.58,3.15,1.22,5,.56,6.76-2.87,7.16-14.18,14.19-28.48,22.36-42.08,5.11-8.51,12.5-15.62,18.28-23.77C456,47.68,470.86,38.46,485.08,28.65c26.16-18,55.56-27.2,87.24-28.26,17.27-.58,34.63-.6,51.85.53,22,1.45,41.3,10.93,59.86,22.27,12.93,7.9,26.27,15.48,35.21,27.93,7.37,10.26,12.71,21.95,19.47,32.69,10.39,16.52,16.19,34.65,16.28,53.87.08,15.24-2,30.62-4.58,45.7a140.79,140.79,0,0,1-9.11,30.41C736,226.62,726.66,236.91,716,245.71c-18,14.8-37.34,27.48-59.38,35.35-23.77,8.48-48.42,12.51-73.66,10.58-16.91-1.3-33.72-3.88-50.57-5.89C530.26,285.5,528.17,285.21,525.5,284.86ZM28.08,205.34c.88,7.7,1,15.61,2.79,23.09,5,20.42,10.23,40.81,16.26,60.95,4.55,15.18,13,28.37,26.54,37.12,11.24,7.26,23.67,12.68,34.8,20.1,11.32,7.54,23.76,10.39,36.76,12.45,10.06,1.59,19-1.77,28.09-5.05,17.36-6.24,34.76-12.38,45.51-28.89,1.5-2.29,3-5.3,2.84-7.84-1-12.36,1.77-24,5.39-35.61.94-3,2.62-5,6.47-4.62a35.89,35.89,0,0,0,11.43-.61c4.55-1.08,6.62,2.7,9.87,4.05.69.29,1,2.39.85,3.53a63.81,63.81,0,0,1-2.18,8c-6.79,21.08-3.56,41.43,5.61,60.84a263.1,263.1,0,0,0,19.45,33.85c6.2,9.23,13,18.54,21.23,25.82,10.61,9.34,22.83,16.9,34.61,24.84,12.83,8.65,26.72,12.26,42.2,8,10.42-2.86,20.92-5.64,31.55-7.44,15.45-2.62,29.65-7.79,42.37-17,11.87-8.6,24.35-16.54,30.64-30.68,4.31-9.68,8.3-19.52,13-29,7.95-16.17,11.57-33.22,8.45-50.87C500.3,297.44,496,284.85,492,272.37c-3.61-11-8.21-21.74-16.42-30.35-4.67-4.9-9.89-9.34-14.09-14.6-1.65-2.08-1.78-5.93-1.41-8.81.14-1,3.76-1.82,5.88-2.34,1.75-.42,3.69-.05,5.46-.44,7.47-1.66,13,1.25,18.23,6.44C500,232.59,510.38,243,515.36,257.14c2.76,7.85,7.79,11.28,15.7,12.28,9.52,1.2,19,2.88,28.42,4.72,24.86,4.85,49.49,5.31,73.83-2.95,18.61-6.32,35-16.46,50.79-28,12.53-9.18,23.14-20,29.84-34,6.11-12.7,9.07-26.55,10.43-40.55,1.15-12,2.4-24.05,1.74-36-1.05-19.11-9.27-36-19.43-51.95-5.76-9-10-19.88-17.69-26.76C661,29,629.35,13.26,590.12,13.35c-43.67.1-79.11,17.75-109.59,46.39-13.87,13-26.07,28.37-34,46.41-4.18,9.53-9.53,18.54-14.21,27.85-5.19,10.34-13.16,15.76-25,14.3-7.57-.93-15.24-1.62-22.64-3.38-10.82-2.58-21.33-6.48-32.17-9-11.87-2.72-24-4.16-36.17-1.71-10.27,2.07-20.51,4.39-30.61,7.17-8.41,2.32-17.73,3.94-23.57,10.89-6.75,8.06-27.54,10.46-34.59.44-5.66-8.05-12.45-15.85-20.29-21.7-19.93-14.87-41.72-26.73-66-33A41,41,0,0,0,123.07,98c-18.19,3.93-36.27,8.51-54.23,13.41a29.16,29.16,0,0,0-12.64,7.12c-10.07,10.18-15.66,23-19.16,36.74C32.87,171.68,27,187.84,28.08,205.34Z"/><path class="cls-1" d="M315.09,321c-6.19,6.27-13.64,6-21.22,5.44-5.45-.42-7.89-2.37-8.73-7.52-1.73-10.67-3.67-21.32-5.08-32-1.28-9.77-1.5-19.69-3-29.42-2.42-15.54-5.55-31-8.32-46.44-.54-3-1.33-6.12-1-9.05.22-1.74,2.24-4.28,3.87-4.67a107.65,107.65,0,0,1,56,1.2c4.41,1.3,7.56.9,11.12-2.21,6.11-5.34,12.84-10,19.14-15.1a7.37,7.37,0,0,0,2.15-4.33c.46-3.17,1.8-4.57,5.17-4.52,8.9.12,17.83-.41,26.71.11,3,.17,6.28,2.25,8.64,4.34,1.85,1.65.42,4.09-1.77,5.11-4.89,2.28-4.52,5-1.92,9.2a205.43,205.43,0,0,1,10.85,20.62,27.12,27.12,0,0,0,11.51,12.76c2.47,1.38,3.66,3.32,1.44,5.41s-1.24,3.13.23,4.87c6.76,8,13.66,15.94,19.94,24.33a30.28,30.28,0,0,1,4.92,11.57c1.51,7-2.26,11.66-9.52,12.41-3.62.37-7.32,0-11,.21-4.78.27-7.41-1.27-7.61-6.61-.4-10.29-7.24-17.34-13.25-24.73-5.4-6.65-10.74-13.36-16.35-19.83a12.76,12.76,0,0,0-6-4c-11.28-2.85-22.63-5.5-34-7.74-1.9-.37-4.55,1.32-6.36,2.7-9.53,7.21-18.42,15.38-28.49,21.7-6.3,4-7.66,7.39-7.31,14.85.89,18.77,5.57,36.76,8.66,55.07C314.92,317,315,319.32,315.09,321ZM296.84,208.48c1.67,7.08,3,12.8,4.58,19.47l17.05-14.54Zm74-10.31-9.51,8.4,14.45,2.2Z"/><path class="cls-1" d="M372.85,425.21c-12.84.13-24.88-1.87-33.74-12.5-7.58-9.08-11.26-19.91-12.62-31.32-1-8.41-.49-17-.43-25.51,0-4,2.25-5.76,6.45-5.44a29.18,29.18,0,0,0,9.93-.58c4.65-1.33,7.51,1.51,10.58,3.66,1,.72,1.37,3.17,1.19,4.73-1.9,16.61.57,32.25,10.31,46.18,4.29,6.12,9,7.27,16,4.67,17.18-6.36,27.82-18.72,31.34-36.46,2.25-11.33-1.52-19.19-12.37-25.49-2.31-1.34-4.92-2.23-4.85-6,.14-6.48.12-6.78,6.69-6.83a23.77,23.77,0,0,0,5.48-.36c17-4.19,35.33,18.95,34.23,32.85C439,393.4,424.69,410.62,400.57,420c-8.69,3.37-18.24,4.52-27.39,6.69Z"/><path d="M296.84,208.48l21.63,4.93L301.42,228C299.85,221.28,298.51,215.56,296.84,208.48Z"/><path d="M370.87,198.17l4.94,10.6-14.45-2.2Z"/></svg>
