<svg id="Layer_1" data-name="Layer 1" xmlns="http://www.w3.org/2000/svg" viewBox="0 0 590.1 806.35"><defs><style>.cls-1{fill:#fff;}</style></defs><path class="cls-1" d="M455.74,599.05c7.86-1.73,15.38-4,23.07-4.92,11.05-1.29,22.34-.87,32.28-7.18a12.5,12.5,0,0,1,5.28-1.34c9.06-.94,18.44-.74,25.59-7.89.32-.32.92-.35,1.39-.52,14.35-5.07,17.81-19,7.33-30-4.7-4.94-9.77-9.55-14.7-14.27q-35.61-34-71.15-68.11a9.73,9.73,0,0,1-3-6.22c.55-55.33,1.37-110.65,1.88-166,0-4.18,1.48-6.1,4.85-8,34.95-20.09,69.79-40.39,104.71-60.54,9.82-5.67,16.11-14.63,16.69-25.18.73-13.13-1.52-26.45-2.89-39.64a10.62,10.62,0,0,0-3.83-6.77c-4.36-3.15-6.94-7.33-9.26-11.92a23.21,23.21,0,0,0-3-4c-6.37-7.7-12.73-15.42-19.17-23.07-3.12-3.71-5.54-7.5-6.69-12.51-.81-3.54-3.81-7-6.65-9.55a32.22,32.22,0,0,0-10.94-6.86c-14.25-4.75-23.36-16.1-34.33-25.2-10.56-8.77-21.57-17.24-33.34-24.25-17.57-10.46-35.82-19.81-54.1-29a46.87,46.87,0,0,0-18.54-5.06q-31.69-1.32-63.45-1C299.66.26,275.54,1,251.44,2c-12.61.5-25.21,1.74-37.75,3.12-3.3.36-6.42,2.44-9.58,3.84-1.18.53-2.16,1.8-3.35,2-9.34,1.41-18.67,3.19-28.08,3.75a64.81,64.81,0,0,0-23.06,5.71c-9.22,4.13-18.17,9-28.63,9.93-6.23.57-10.76,4.6-14.55,9.67a88.35,88.35,0,0,1-10.6,11.54,30.23,30.23,0,0,1-7.61,4.62C82.49,58.88,78.47,62.9,77,69.3a12.83,12.83,0,0,1-2.43,4.78c-7.25,9.34-14.94,18.36-21.82,28-6.54,9.12-12.85,18.42-18.76,28-7.3,11.88-11,24.83-16.71,37.11-1.26,2.72-2.08,5.63-3.37,8.33a9.25,9.25,0,0,1-3,3.8c-6.07,3.89-8.53,9.54-8.68,16.49q-.47,22.73-1,45.47c-.18,8,.08,16-.64,24-3.13,34.39,5,65.9,22.6,95.45,6.77,11.33,14.66,22,19.2,34.82,3.76,10.59,9.47,20.52,14.64,30.57,7.52,14.64,15.31,29.15,23.06,43.67a25.66,25.66,0,0,0,4.15,6.2c12.67,12.59,21.75,27.67,30.88,42.84a64,64,0,0,0,15.31,17.41c11.4,8.78,24.88,14.59,36,24a97.53,97.53,0,0,0,11.49,8c13.65,8.57,27.31,17.15,41.12,25.49a178.5,178.5,0,0,0,16.83,8.71,17.93,17.93,0,0,0,17.71-.8,8.26,8.26,0,0,1,4.18-1.29c5.65.2,11.39.17,16.93,1.13,16.28,2.82,32.56,5.34,49.15,4.78a10.84,10.84,0,0,1,2.42.46,14.64,14.64,0,0,1,.17,2.14q-2.67,31.88-5.36,63.73c-1.34,16.1-2.73,32.2-3.84,48.32-.62,9.18,4.17,16.22,12,18.59,7.61,2.3,15.52-.8,20-8.43,4.24-7.17,8.26-14.49,11.89-22,4-8.18,2-15.66-4.55-21.68a6.94,6.94,0,0,1-2.13-4.89c1.34-18.94,2.88-37.86,4.44-56.79.52-6.4,1.22-12.79,1.82-18.95l60.88-3.13v6.78q0,86.76,0,173.5a40.91,40.91,0,0,0,1,9.89,15.73,15.73,0,0,0,12.13,12c6.36,1.53,12.07-.16,16.28-5.15a120.21,120.21,0,0,0,10.66-14.46c4.46-7.26,3.4-15.68-2.63-21-2.71-2.38-3.45-4.79-3.45-8.18q.13-76.24.06-152.5Z"/><path d="M455.74,599.05v5.5q0,76.26-.06,152.5c0,3.39.74,5.8,3.45,8.18,6,5.29,7.09,13.71,2.63,21a120.21,120.21,0,0,1-10.66,14.46c-4.21,5-9.92,6.68-16.28,5.15a15.73,15.73,0,0,1-12.13-12,40.91,40.91,0,0,1-1-9.89q-.07-86.74,0-173.5V603.6l-60.88,3.13c-.6,6.16-1.3,12.55-1.82,18.95-1.56,18.93-3.1,37.85-4.44,56.79a6.94,6.94,0,0,0,2.13,4.89c6.59,6,8.52,13.5,4.55,21.68-3.63,7.48-7.65,14.8-11.89,22-4.51,7.63-12.42,10.73-20,8.43-7.85-2.37-12.64-9.41-12-18.59,1.11-16.12,2.5-32.22,3.84-48.32q2.64-31.86,5.36-63.73a14.64,14.64,0,0,0-.17-2.14,10.84,10.84,0,0,0-2.42-.46c-16.59.56-32.87-2-49.15-4.78-5.54-1-11.28-.93-16.93-1.13a8.26,8.26,0,0,0-4.18,1.29,17.93,17.93,0,0,1-17.71.8,178.5,178.5,0,0,1-16.83-8.71c-13.81-8.34-27.47-16.92-41.12-25.49a97.53,97.53,0,0,1-11.49-8c-11.08-9.41-24.56-15.22-36-24a64,64,0,0,1-15.31-17.41C106.06,503.63,97,488.55,84.31,476a25.66,25.66,0,0,1-4.15-6.2c-7.75-14.52-15.54-29-23.06-43.67-5.17-10-10.88-20-14.64-30.57C37.92,382.73,30,372,23.26,360.7,5.62,331.15-2.47,299.64.66,265.25c.72-7.94.46-16,.64-24q.49-22.74,1-45.47c.15-6.95,2.61-12.6,8.68-16.49a9.25,9.25,0,0,0,3-3.8c1.29-2.7,2.11-5.61,3.37-8.33C23,154.91,26.68,142,34,130.08c5.91-9.62,12.22-18.92,18.76-28,6.88-9.6,14.57-18.62,21.82-28A12.83,12.83,0,0,0,77,69.3c1.48-6.4,5.5-10.42,11.24-13.17a30.23,30.23,0,0,0,7.61-4.62A88.35,88.35,0,0,0,106.44,40c3.79-5.07,8.32-9.1,14.55-9.67,10.46-1,19.41-5.8,28.63-9.93a64.81,64.81,0,0,1,23.06-5.71c9.41-.56,18.74-2.34,28.08-3.75,1.19-.18,2.17-1.45,3.35-2,3.16-1.4,6.28-3.48,9.58-3.84C226.23,3.71,238.83,2.47,251.44,2,275.54,1,299.66.26,323.78.05q31.73-.27,63.45,1a46.87,46.87,0,0,1,18.54,5.06c18.28,9.18,36.53,18.53,54.1,29,11.77,7,22.78,15.48,33.34,24.25,11,9.1,20.08,20.45,34.33,25.2a32.22,32.22,0,0,1,10.94,6.86c2.84,2.59,5.84,6,6.65,9.55,1.15,5,3.57,8.8,6.69,12.51,6.44,7.65,12.8,15.37,19.17,23.07a23.21,23.21,0,0,1,3,4c2.32,4.59,4.9,8.77,9.26,11.92a10.62,10.62,0,0,1,3.83,6.77c1.37,13.19,3.62,26.51,2.89,39.64-.58,10.55-6.87,19.51-16.69,25.18-34.92,20.15-69.76,40.45-104.71,60.54-3.37,1.94-4.81,3.86-4.85,8-.51,55.33-1.33,110.65-1.88,166a9.73,9.73,0,0,0,3,6.22Q500.28,499,536,533c4.93,4.72,10,9.33,14.7,14.27,10.48,11,7,24.91-7.33,30-.47.17-1.07.2-1.39.52-7.15,7.15-16.53,6.95-25.59,7.89a12.5,12.5,0,0,0-5.28,1.34c-9.94,6.31-21.23,5.89-32.28,7.18C471.12,595,463.6,597.32,455.74,599.05Zm71-464.29c-7.32-7-13.8-14.18-21.28-20.1C492,104,478.35,93.53,464,84.16c-11.53-7.55-24.14-13.44-36.39-19.86a38.07,38.07,0,0,0-9.8-3.44C405,58.18,392,55.72,379.1,53.29c-15.05-2.83-30-7.13-45.2-8C294,43,254,41.93,214,45c-11,.85-22.59,1.42-32.82,5.12C162.3,57,144.13,65.85,125.82,74.26A41.46,41.46,0,0,0,113.14,83C104,92.64,95.29,102.73,86.86,113c-7.07,8.63-13.47,17.8-20.22,26.7-1.89,2.49-4.71,4.56-5.8,7.34-5.93,15.18-11.56,30.49-17.05,45.84a32.68,32.68,0,0,0-2,10.65q-.12,48.49.21,97a30.86,30.86,0,0,0,2.24,11.09C52.5,332,61.55,352,69.31,372.51,79,398.26,93.69,421.33,107,445.13a21.77,21.77,0,0,0,3.2,3.82c7.58,8.2,14.93,16.62,22.83,24.5,16.16,16.11,31.55,33.25,49.25,47.48,18.73,15.07,39.36,27.76,62.11,36.79,12.92,5.13,25.43,10.47,39.64,10.28,4.28-.06,8.59,1.42,12.85,1.27,8.42-.3,16.81-1.28,25.22-1.92,5.72-.43,8.15-3.12,8.61-8.88q3.11-39.6,6.41-79.18c2.14-26.06,4.25-52.12,6.51-78.17a9.14,9.14,0,0,0-3.31-8.26c-9.4-8.73-18.64-17.64-27.89-26.54-12.13-11.68-10.67-24.18,3.8-32.65,10.21-6,20.4-12,30.72-17.75,2.78-1.55,4.15-3.4,4.38-6.58,1-13.45,2.14-26.89,3.24-40.34q3.18-38.83,6.36-77.68,3.81-46.06,7.68-92.11c.68-8.14,1.21-16.29,2.14-24.39,1.12-9.84,8.75-16.48,17.88-15.94s15.78,8.09,15.85,18c0,1-.41,2.12-.08,3,.69,1.76,1.32,4.18,2.73,4.94q51.22,27.63,102.68,54.88a5.66,5.66,0,0,0,4.08.61C517.79,138.86,521.49,137.05,526.7,134.76ZM375.94,427c-.4,2.17-.76,3.46-.87,4.76-1.32,15.76-2.58,31.52-3.89,47.28-2.1,25.2-4.25,50.4-6.3,75.6a9.3,9.3,0,0,0,7.24,9.39,153,153,0,0,0,45.61,1.82c8.91-.93,18.09-2.81,26.77-1.6,17.2,2.39,33.3-2.68,49.77-5.21,2.9-.45,6.19-3.85,7.66-6.73,1.75-3.42-.7-6.61-3.84-8.79a22.07,22.07,0,0,1-2.62-2.32L417.81,467C404.1,453.89,390.38,440.8,375.94,427Zm10.69-134.19,27.24-15.74Q483.05,237,552.26,197c3.14-1.81,4.61-3.72,4.31-7.42-.57-6.91-.71-13.59-3.71-20.33-2.52-5.64-6.8-8.94-10.63-14-1.93,7.61-6.76,11.56-12,15.3q-69.09,49-138.06,98.17c-1.42,1-3.32,2.42-3.52,3.85C387.7,278.89,387.31,285.29,386.63,292.83ZM401,120.16c-3,35.82-5.84,70.56-8.84,106.74l89.62-63.66Zm27.9,188.11s-.38-.17-.6,0c-14.44,8.28-28.89,16.53-43.22,25-1.14.67-2,2.67-2.11,4.13-1.23,13.92-2.41,27.85-3.23,41.81a9.88,9.88,0,0,0,2.64,6.8c13.3,13.07,26.85,25.89,40.33,38.77,1.62,1.56,3.3,3.05,4.95,4.57l1.24-.48Z"/><path class="cls-1" d="M526.7,134.76c-5.21,2.29-8.91,4.1-12.77,5.49a5.66,5.66,0,0,1-4.08-.61q-51.42-27.3-102.68-54.88c-1.41-.76-2-3.18-2.73-4.94-.33-.85.08-2,.08-3-.07-9.88-6.74-17.44-15.85-18S371.91,65,370.79,74.82c-.93,8.1-1.46,16.25-2.14,24.39q-3.86,46.05-7.68,92.11-3.21,38.84-6.36,77.68c-1.1,13.45-2.25,26.89-3.24,40.34-.23,3.18-1.6,5-4.38,6.58-10.32,5.78-20.51,11.78-30.72,17.75-14.47,8.47-15.93,21-3.8,32.65,9.25,8.9,18.49,17.81,27.89,26.54a9.14,9.14,0,0,1,3.31,8.26c-2.26,26.05-4.37,52.11-6.51,78.17q-3.26,39.58-6.41,79.18c-.46,5.76-2.89,8.45-8.61,8.88-8.41.64-16.8,1.62-25.22,1.92-4.26.15-8.57-1.33-12.85-1.27-14.21.19-26.72-5.15-39.64-10.28-22.75-9-43.38-21.72-62.11-36.79-17.7-14.23-33.09-31.37-49.25-47.48-7.9-7.88-15.25-16.3-22.83-24.5a21.77,21.77,0,0,1-3.2-3.82c-13.35-23.8-28-46.87-37.73-72.62C61.55,352,52.5,332,44.27,311.65A30.86,30.86,0,0,1,42,300.56q-.35-48.49-.21-97a32.68,32.68,0,0,1,2-10.65c5.49-15.35,11.12-30.66,17.05-45.84,1.09-2.78,3.91-4.85,5.8-7.34,6.75-8.9,13.15-18.07,20.22-26.7C95.29,102.73,104,92.64,113.14,83a41.46,41.46,0,0,1,12.68-8.7C144.13,65.85,162.3,57,181.21,50.11,191.44,46.41,203,45.84,214,45c39.94-3.06,80-2,119.87.29,15.17.88,30.15,5.18,45.2,8C392,55.72,405,58.18,417.83,60.86a38.07,38.07,0,0,1,9.8,3.44c12.25,6.42,24.86,12.31,36.39,19.86,14.33,9.37,28,19.86,41.4,30.5C512.9,120.58,519.38,127.77,526.7,134.76Z"/><path class="cls-1" d="M375.94,427c14.44,13.78,28.16,26.87,41.87,40l77.66,74.23a22.07,22.07,0,0,0,2.62,2.32c3.14,2.18,5.59,5.37,3.84,8.79-1.47,2.88-4.76,6.28-7.66,6.73-16.47,2.53-32.57,7.6-49.77,5.21-8.68-1.21-17.86.67-26.77,1.6a153,153,0,0,1-45.61-1.82,9.3,9.3,0,0,1-7.24-9.39c2.05-25.2,4.2-50.4,6.3-75.6,1.31-15.76,2.57-31.52,3.89-47.28C375.18,430.48,375.54,429.19,375.94,427Z"/><path class="cls-1" d="M401,120.16l80.78,43.08L392.15,226.9C395.15,190.72,398,156,401,120.16Z"/><path class="cls-1" d="M428.89,308.27V428.79l-1.24.48c-1.65-1.52-3.33-3-4.95-4.57-13.48-12.88-27-25.7-40.33-38.77a9.88,9.88,0,0,1-2.64-6.8c.82-14,2-27.89,3.23-41.81.13-1.46,1-3.46,2.11-4.13,14.33-8.44,28.78-16.69,43.22-25C428.51,308.1,428.91,308.28,428.89,308.27Z"/></svg>
