<svg id="Layer_1" data-name="Layer 1" xmlns="http://www.w3.org/2000/svg" xmlns:xlink="http://www.w3.org/1999/xlink" viewBox="0 0 1920 1080"><defs><style>.cls-1,.cls-17,.cls-28{fill:#c1272d;}.cls-1,.cls-2,.cls-20{opacity:0.5;}.cls-1,.cls-14,.cls-2,.cls-4,.cls-7{isolation:isolate;}.cls-2,.cls-41,.cls-5{fill:gray;}.cls-12,.cls-3{fill:none;}.cls-15,.cls-4{fill:#8c6239;}.cls-4{opacity:0.8;}.cls-6{fill:#ccc;}.cls-7{fill:#03000c;opacity:0.9;}.cls-33,.cls-8{fill:#666;}.cls-9{fill:#422811;}.cls-10{fill:#ed1c24;}.cls-10,.cls-11,.cls-23,.cls-25,.cls-26,.cls-27,.cls-28,.cls-29,.cls-30,.cls-31,.cls-32,.cls-33,.cls-34,.cls-35,.cls-36,.cls-37,.cls-38,.cls-39,.cls-40,.cls-41,.cls-42,.cls-43{stroke:#000;}.cls-10,.cls-11,.cls-12,.cls-18,.cls-19,.cls-23,.cls-25,.cls-26,.cls-27,.cls-28,.cls-29,.cls-30,.cls-31,.cls-32,.cls-33,.cls-34,.cls-35,.cls-36,.cls-37,.cls-38,.cls-39,.cls-40,.cls-41,.cls-42,.cls-43{stroke-miterlimit:10;}.cls-12{stroke:#fff;stroke-width:8px;}.cls-13,.cls-25{fill:#fff;}.cls-14{opacity:0.79;fill:url(#linear-gradient);}.cls-16{fill:#3a3a3a;}.cls-18,.cls-39{fill:#ff0;}.cls-18,.cls-19{stroke:#1a1a1a;}.cls-19{fill:#636363;}.cls-21{fill:#c4b212;}.cls-22{fill:#ffdeb4;}.cls-23{fill:#9e005d;}.cls-24{fill:#e6e6e6;}.cls-26{fill:#0071bc;}.cls-27{fill:#c69c6d;}.cls-29{fill:#ffb17f;}.cls-30{fill:#a67c52;}.cls-31{fill:#43deff;}.cls-32{opacity:0.34;}.cls-34{fill:#42210b;}.cls-35{fill:#006837;}.cls-36{fill:#2f5500;}.cls-37{fill:#1f8a00;}.cls-38{fill:#ffb16a;}.cls-40{fill:#fbb03b;}.cls-42{fill:red;}.cls-43{fill:#f15a24;}</style><linearGradient id="linear-gradient" x1="-17" y1="656.82" x2="1921" y2="656.82" gradientTransform="matrix(1, 0, 0, -1, 0, 1077.89)" gradientUnits="userSpaceOnUse"><stop offset="0" stop-color="#fff"/><stop offset="1"/></linearGradient></defs><path class="cls-1" d="M580.42-2.58c21.17,87,39,197.12,34.35,310.86h59.77c4.05-65.14,14.08-197.9,33.78-310.86Z"/><polygon class="cls-2" points="563.15 641 705.87 641.64 675.11 309.08 615.13 307.41 563.15 641"/><path class="cls-1" d="M217.9-2.58c21,86.7,38.5,196,33.87,308.86h59.77c4-64.76,14-196.33,33.43-308.86Z"/><polygon class="cls-2" points="200.15 639 342.87 639.64 312.11 307.08 252.13 305.41 200.15 639"/><path class="cls-1" d="M911.1-2.58c20.42,85.89,37.22,193.15,32.67,303.86h59.77c4-63.8,13.66-192.46,32.57-303.86Z"/><polygon class="cls-2" points="892.15 634 1034.87 634.64 1004.11 302.08 944.13 300.41 892.15 634"/><path class="cls-1" d="M1292.1-2.58c20.42,85.89,37.22,193.15,32.67,303.86h59.77c4-63.8,13.66-192.46,32.57-303.86Z"/><polygon class="cls-2" points="1273.15 634 1415.87 634.64 1385.11 302.08 1325.13 300.41 1273.15 634"/><path class="cls-1" d="M1641.1-2.58c20.42,85.89,37.22,193.15,32.67,303.86h59.77c4-63.8,13.66-192.46,32.57-303.86Z"/><polygon class="cls-2" points="1622.15 634 1764.87 634.64 1734.11 302.08 1674.13 300.41 1622.15 634"/><line class="cls-3" x1="627" y1="341" x2="645" y2="360"/><rect class="cls-4" x="-11" y="721.81" width="1934" height="52.19"/><rect class="cls-5" x="-8" y="698.61" width="1926" height="24.65"/><rect class="cls-6" x="-6" y="637.24" width="1926" height="24.65"/><rect class="cls-7" x="-4" y="774.24" width="1926" height="24.65"/><rect class="cls-8" x="-8" y="660.92" width="1928" height="39.14"/><rect class="cls-9" x="10" y="696.2" width="36" height="3.87"/><rect class="cls-9" x="57" y="696.2" width="36" height="3.87"/><rect class="cls-9" x="106" y="696.2" width="36" height="3.87"/><rect class="cls-9" x="154" y="695.71" width="36" height="3.87"/><rect class="cls-9" x="201" y="695.71" width="36" height="3.87"/><rect class="cls-9" x="249" y="695.71" width="36" height="3.87"/><rect class="cls-9" x="297" y="696.2" width="36" height="3.87"/><rect class="cls-9" x="344" y="695.71" width="36" height="3.87"/><rect class="cls-9" x="388" y="695.71" width="36" height="3.87"/><rect class="cls-9" x="436" y="695.71" width="36" height="3.87"/><rect class="cls-9" x="486" y="695.71" width="36" height="3.87"/><rect class="cls-9" x="537" y="695.71" width="36" height="3.87"/><rect class="cls-9" x="587" y="696.2" width="36" height="3.87"/><rect class="cls-9" x="635" y="696.68" width="36" height="3.87"/><rect class="cls-9" x="690" y="696.68" width="36" height="3.87"/><rect class="cls-9" x="739" y="696.68" width="36" height="3.87"/><rect class="cls-9" x="790" y="696.68" width="36" height="3.87"/><rect class="cls-9" x="839" y="696.68" width="36" height="3.87"/><rect class="cls-9" x="885" y="696.2" width="36" height="3.87"/><rect class="cls-9" x="931" y="695.71" width="36" height="3.87"/><rect class="cls-9" x="978" y="695.71" width="36" height="3.87"/><rect class="cls-9" x="1027" y="695.71" width="36" height="3.87"/><rect class="cls-9" x="1072" y="695.71" width="36" height="3.87"/><rect class="cls-9" x="1121" y="696.2" width="36" height="3.87"/><rect class="cls-9" x="1170" y="696.2" width="36" height="3.87"/><rect class="cls-9" x="1217" y="695.71" width="36" height="3.87"/><rect class="cls-9" x="1263" y="695.71" width="36" height="3.87"/><rect class="cls-9" x="1322" y="695.71" width="36" height="3.87"/><rect class="cls-9" x="1374" y="695.71" width="36" height="3.87"/><rect class="cls-9" x="1435" y="695.23" width="36" height="3.87"/><rect class="cls-9" x="1496" y="695.71" width="36" height="3.87"/><rect class="cls-9" x="1555" y="695.71" width="36" height="3.87"/><rect class="cls-9" x="1618" y="696.2" width="36" height="3.87"/><rect class="cls-9" x="1669" y="696.2" width="36" height="3.87"/><rect class="cls-9" x="1721" y="696.2" width="36" height="3.87"/><rect class="cls-9" x="1772" y="696.2" width="36" height="3.87"/><rect class="cls-9" x="1822" y="695.71" width="36" height="3.87"/><rect class="cls-9" x="1870" y="695.71" width="36" height="3.87"/><rect class="cls-10" x="722.5" y="418.5" width="1047" height="273" rx="94.04"/><rect class="cls-11" x="838.5" y="485.5" width="157" height="105" rx="12"/><rect class="cls-11" x="1012.5" y="484.5" width="157" height="105" rx="12"/><rect class="cls-11" x="1188.5" y="485.5" width="157" height="105" rx="12"/><rect class="cls-11" x="1369.5" y="487.5" width="157" height="105" rx="12"/><rect class="cls-11" x="1546.5" y="489.5" width="157" height="105" rx="12"/><rect class="cls-11" x="761.5" y="480.5" width="41" height="94" rx="12"/><circle class="cls-12" cx="1206.27" cy="584.59" r="87.72"/><circle class="cls-12" cx="1481.62" cy="590.28" r="87.72"/><circle class="cls-13" cx="1335.42" cy="596.77" r="19.49"/><rect class="cls-13" x="1157.43" y="535.91" width="151.08" height="19.49" rx="6" transform="translate(57.93 1206.89) rotate(-53.24)"/><rect class="cls-13" x="1264.37" y="460.99" width="19.49" height="38.49" rx="6"/><rect class="cls-13" x="1247.69" y="450.99" width="48.74" height="19.49" rx="6"/><rect class="cls-13" x="1407.32" y="448.94" width="19.49" height="47.29" rx="6"/><rect class="cls-13" x="1382.53" y="438" width="53.79" height="19.49" rx="6"/><rect class="cls-13" x="1184.33" y="588.65" width="151.08" height="19.49" rx="6"/><rect class="cls-13" x="1301.41" y="533.35" width="151.08" height="19.49" rx="6" transform="translate(107.32 1304) rotate(-52.46)"/><rect class="cls-13" x="1262.32" y="491.18" width="151.08" height="19.49" rx="6"/><rect class="cls-13" x="1443.46" y="470.92" width="19.49" height="151.08" rx="6" transform="translate(-63.99 875.93) rotate(-32.86)"/><rect class="cls-14" x="-17" y="67.14" width="1938" height="707.86"/><rect class="cls-15" x="-6" y="974" width="1934" height="108"/><rect class="cls-5" x="-3" y="926" width="1926" height="51"/><rect class="cls-6" x="-1" y="799" width="1926" height="51"/><rect class="cls-16" x="-3" y="848" width="1928" height="81"/><rect class="cls-9" x="15" y="921" width="36" height="8"/><rect class="cls-9" x="62" y="921" width="36" height="8"/><rect class="cls-9" x="111" y="921" width="36" height="8"/><rect class="cls-9" x="159" y="920" width="36" height="8"/><rect class="cls-9" x="206" y="920" width="36" height="8"/><rect class="cls-9" x="254" y="920" width="36" height="8"/><rect class="cls-9" x="302" y="921" width="36" height="8"/><rect class="cls-9" x="349" y="920" width="36" height="8"/><rect class="cls-9" x="393" y="920" width="36" height="8"/><rect class="cls-9" x="441" y="920" width="36" height="8"/><rect class="cls-9" x="491" y="920" width="36" height="8"/><rect class="cls-9" x="542" y="920" width="36" height="8"/><rect class="cls-9" x="592" y="921" width="36" height="8"/><rect class="cls-9" x="640" y="922" width="36" height="8"/><rect class="cls-9" x="695" y="922" width="36" height="8"/><rect class="cls-9" x="744" y="922" width="36" height="8"/><rect class="cls-9" x="795" y="922" width="36" height="8"/><rect class="cls-9" x="844" y="922" width="36" height="8"/><rect class="cls-9" x="890" y="921" width="36" height="8"/><rect class="cls-9" x="936" y="920" width="36" height="8"/><rect class="cls-9" x="983" y="920" width="36" height="8"/><rect class="cls-9" x="1032" y="920" width="36" height="8"/><rect class="cls-9" x="1077" y="920" width="36" height="8"/><rect class="cls-9" x="1126" y="921" width="36" height="8"/><rect class="cls-9" x="1175" y="921" width="36" height="8"/><rect class="cls-9" x="1222" y="920" width="36" height="8"/><rect class="cls-9" x="1268" y="920" width="36" height="8"/><rect class="cls-9" x="1327" y="920" width="36" height="8"/><rect class="cls-9" x="1379" y="920" width="36" height="8"/><rect class="cls-9" x="1440" y="919" width="36" height="8"/><rect class="cls-9" x="1501" y="920" width="36" height="8"/><rect class="cls-9" x="1560" y="920" width="36" height="8"/><rect class="cls-9" x="1623" y="921" width="36" height="8"/><rect class="cls-9" x="1674" y="921" width="36" height="8"/><rect class="cls-9" x="1726" y="921" width="36" height="8"/><rect class="cls-9" x="1777" y="921" width="36" height="8"/><rect class="cls-9" x="1827" y="920" width="36" height="8"/><rect class="cls-9" x="1875" y="920" width="36" height="8"/><rect x="54.8" y="554.16" width="23.72" height="111.5"/><rect x="56.8" y="571.28" width="23.72" height="230.72"/><path class="cls-17" d="M317.16-4.86c27.2,72,98.24,285.27,79.16,503.66-23.46,268.55,60,1.67,60,1.67S473.35,120,534.43-4.86Z"/><polygon class="cls-5" points="345.15 803 487.87 803.64 457.11 471.08 397.13 469.41 345.15 803"/><path class="cls-17" d="M-34-4.86a42.29,42.29,0,0,1-9.51-1.08C-15,63.39,63.23,276.54,49.85,497.38c-16.31,269.08,60,.07,60,.07S116.6,126.23,172.34-4.86Z"/><polygon class="cls-5" points="4.29 806.13 147 804.26 110.38 472.29 50.38 471.68 4.29 806.13"/><path class="cls-17" d="M1684.49-4.86c27.79,72,100.26,284.54,82.81,502.87-21.48,268.71,60,1.22,60,1.22s14.12-377,73.55-504.09Z"/><polygon class="cls-5" points="1718.38 800 1861.1 799.59 1827.88 467.26 1767.9 466.04 1718.38 800"/><path class="cls-17" d="M671.26-4.86c27.8,73.68,97.85,285.1,79.26,501.74-23,268.59,60,1.58,60,1.58S826.79,122.23,886.83-4.86Z"/><path class="cls-17" d="M1018.26-7c27.8,73.68,97.85,285.1,79.26,501.74-23,268.59,60,1.58,60,1.58S1173.79,120.09,1233.83-7Z"/><polygon class="cls-5" points="699.83 801.16 842.55 801.58 811.27 469.07 751.29 467.49 699.83 801.16"/><polygon class="cls-5" points="1051.22 802.02 1193.93 800.68 1158.56 468.57 1098.57 467.74 1051.22 802.02"/><path class="cls-17" d="M1360-4.86c26.57,63.4,109.48,281.72,96,508.26-16,269.1,60,0,60,0s6.52-382.73,64.52-508.26Z"/><polygon class="cls-5" points="1406.65 799 1549.37 798.8 1516.65 466.42 1456.66 465.11 1406.65 799"/><line class="cls-3" x1="409" y1="503" x2="427" y2="522"/><path class="cls-17" d="M122,116.52S232.94,8,382,131.38,364-14,364-14L129-6.32Z"/><path class="cls-17" d="M458,119.52S568.94,11,718,134.38,700-11,700-11L465-3.32Z"/><path class="cls-17" d="M812,121.52S922.94,13,1072,136.38,1054-9,1054-9L819-1.32Z"/><path class="cls-17" d="M1148,112.52S1258.94,4,1408,127.38,1390-18,1390-18l-235,7.68Z"/><path class="cls-17" d="M1488,117.52S1598.94,9,1748,132.38,1730-13,1730-13L1495-5.32Z"/><path class="cls-17" d="M1925.15-4.37,1832-1.32l-7,122.84s38.32-37.44,100.15-43.31Z"/><rect class="cls-18" x="1410.5" y="472.5" width="154" height="18"/><rect class="cls-19" x="1410.5" y="473.5" width="154" height="9"/><rect class="cls-18" x="1053.5" y="467.5" width="154" height="18"/><rect class="cls-19" x="1053.5" y="468.5" width="154" height="9"/><g class="cls-20"><rect class="cls-18" x="577" y="428.5" width="124.5" height="16.82"/><rect class="cls-19" x="577" y="429.43" width="124.5" height="8.41"/></g><rect class="cls-18" x="705.5" y="464.5" width="154" height="18"/><rect class="cls-19" x="705.5" y="465.5" width="154" height="9"/><rect class="cls-18" x="-2" y="464" width="154" height="18"/><rect class="cls-18" x="354.1" y="462.32" width="154" height="18"/><rect class="cls-19" x="-2" y="462.99" width="154" height="9"/><rect class="cls-19" x="354.1" y="461" width="154" height="9"/><rect class="cls-18" x="1715.5" y="467.5" width="154" height="18"/><rect class="cls-19" x="1715.5" y="468.5" width="154" height="9"/><ellipse class="cls-21" cx="62.5" cy="834.5" rx="16.5" ry="10.5"/><ellipse class="cls-21" cx="152.5" cy="835.5" rx="16.5" ry="10.5"/><ellipse class="cls-21" cx="236.5" cy="835.5" rx="16.5" ry="10.5"/><ellipse class="cls-21" cx="322.5" cy="832.5" rx="16.5" ry="10.5"/><ellipse class="cls-21" cx="404.5" cy="833.5" rx="16.5" ry="10.5"/><ellipse class="cls-21" cx="491.5" cy="834.5" rx="16.5" ry="10.5"/><ellipse class="cls-21" cx="578.5" cy="833.5" rx="16.5" ry="10.5"/><ellipse class="cls-21" cx="666.5" cy="832.5" rx="16.5" ry="10.5"/><ellipse class="cls-21" cx="749.5" cy="833.5" rx="16.5" ry="10.5"/><ellipse class="cls-21" cx="836.5" cy="834.5" rx="16.5" ry="10.5"/><ellipse class="cls-21" cx="917.5" cy="834.5" rx="16.5" ry="10.5"/><ellipse class="cls-21" cx="995.5" cy="833.5" rx="16.5" ry="10.5"/><ellipse class="cls-21" cx="1065.5" cy="833.5" rx="16.5" ry="10.5"/><ellipse class="cls-21" cx="1129.5" cy="835.5" rx="16.5" ry="10.5"/><ellipse class="cls-21" cx="1197.5" cy="833.5" rx="16.5" ry="10.5"/><ellipse class="cls-21" cx="1260.5" cy="834.5" rx="16.5" ry="10.5"/><ellipse class="cls-21" cx="1324.5" cy="834.5" rx="16.5" ry="10.5"/><ellipse class="cls-21" cx="1389.5" cy="835.5" rx="16.5" ry="10.5"/><ellipse class="cls-21" cx="1448.5" cy="834.5" rx="16.5" ry="10.5"/><ellipse class="cls-21" cx="1511.5" cy="833.5" rx="16.5" ry="10.5"/><ellipse class="cls-21" cx="1570.5" cy="834.5" rx="16.5" ry="10.5"/><ellipse class="cls-21" cx="1629.5" cy="833.5" rx="16.5" ry="10.5"/><ellipse class="cls-21" cx="1694.5" cy="834.5" rx="16.5" ry="10.5"/><ellipse class="cls-21" cx="1760.5" cy="833.5" rx="16.5" ry="10.5"/><ellipse class="cls-21" cx="1827.5" cy="832.5" rx="16.5" ry="10.5"/><ellipse class="cls-21" cx="1887.5" cy="832.5" rx="16.5" ry="10.5"/><rect class="cls-22" x="985.76" y="363.56" width="22.19" height="33.74" rx="11.1"/><rect class="cls-22" x="955.76" y="363.56" width="22.19" height="33.74" rx="11.1"/><ellipse class="cls-22" cx="948.73" cy="348.84" rx="12.8" ry="24.23" transform="translate(-47.32 521.1) rotate(-30)"/><ellipse class="cls-22" cx="1015.99" cy="349.52" rx="24.23" ry="12.8" transform="translate(205.3 1054.64) rotate(-60)"/><ellipse class="cls-23" cx="981.8" cy="328.35" rx="49.03" ry="19.59"/><ellipse class="cls-23" cx="982.58" cy="344.77" rx="43.27" ry="40.77"/><circle class="cls-22" cx="984.3" cy="276.2" r="61.11"/><ellipse class="cls-13" cx="965.09" cy="261.31" rx="22.53" ry="16.47" transform="translate(194.44 898.33) rotate(-54.73)"/><ellipse class="cls-13" cx="1004.8" cy="262.16" rx="16.47" ry="22.53" transform="translate(33.08 628.37) rotate(-35.27)"/><circle cx="970.93" cy="270.14" r="2.25"/><circle cx="1000.22" cy="270.71" r="2.25"/><path d="M979.43,235.48c1.81,2.22,5.34,2.3,7.89,1.74a17.19,17.19,0,0,0,8-4.23c1.83-1.77,2.94-4.31,1.78-6.76s-3.91-3.9-6.39-4.71a40.63,40.63,0,0,0-9.37-1.44c-2.79-.22-5.86-.83-6.13-4.18-.24-2.91,2.28-4.94,4.57-6.22a29.85,29.85,0,0,1,3.81-1.76,26.17,26.17,0,0,0,4.46-1.8,3.12,3.12,0,0,0,1.51-3.51,5,5,0,0,0-3.07-3,13,13,0,0,0-4.75-1.33c-1.73,0-3.26,1.06-2.93,2.89s3.22,1.09,2.89-.8l-.05-.26-.15,1.15c.15-.3,3.13.8,3.46.93a4.61,4.61,0,0,1,1.37.76c.44.41.41.45-.1.73A27.42,27.42,0,0,1,983,205c-1.17.45-2.33.93-3.46,1.48-4,1.93-7.95,5.34-7.24,10.22a7,7,0,0,0,3.51,5.2c2.14,1.12,4.69,1.17,7.05,1.34a27.8,27.8,0,0,1,7.67,1.43c1.57.59,4.39,2,4.06,4.08-.38,2.36-3.62,4-5.55,4.8s-5.78,1.95-7.48-.14c-1.22-1.49-3.34.64-2.13,2.12Z"/><path d="M986.39,324.14s7.74-8,9.1-7.07,8.14-5.71,8.14-5.71,3.26-.56,3.76-1.84,2.67-2.62,3.55-4.45,7.66-8.51,7.66-8.51-65.65-3.85-65.49-2.92-.77,1.09-.53,2.49,4,5.3,4,5.3,9.95,9.09,10.77,9.67S986.39,324.14,986.39,324.14Z"/><path class="cls-24" d="M970.84,296.36a30.84,30.84,0,0,0-1.42,4.32c.08.46.26,4.27.26,4.27s11.08,1.7,12.59.72l1.51-1s.35-9.17-.59-9S970.84,296.36,970.84,296.36Z"/><path class="cls-24" d="M956.54,296.89s13.05-2.24,12.9-.29-2,6.34-1.79,7.74-6.95,0-6.95,0Z"/><path class="cls-24" d="M985.57,297l-.19,10.1,11.5-.05s5.09-9.51,3.8-10S984.94,296.1,985.57,297Z"/><path class="cls-24" d="M1002.59,298.35a41.12,41.12,0,0,1-3.54,7.32c-2.43,4,8.05.78,8.05.78s7.81-7.58,7.27-8S1002.59,298.35,1002.59,298.35Z"/><path class="cls-22" d="M1055.68,524.51s23.1,3.3,28-5-8.8-8.25,9.35-18.15S1103,480,1103,480l-7.7-15.41-3.85-13.19,5.5-1.65,3.85,8.8,4.4-6.6,4.95-8.8,7.7,5.5-5,10.44,4.4,1.66,6-8.25,2.75,7.15-2.75,8.25,5.5-2.75,2.75,6.6-3.3,4.4s-6,12.1-8.25,14.29-12.1,19.25-12.1,19.25-1.1,17.06-6.6,18.15-11.55,11.55-11.55,11.55L1071.62,546l-12.65.55-11.55.55-8.49-5.68Z"/><ellipse class="cls-22" cx="1076.34" cy="515.16" rx="20.35" ry="11.55" transform="translate(-49.02 911.98) rotate(-45)"/><ellipse class="cls-22" cx="1090.64" cy="526.17" rx="20.35" ry="11.55" transform="translate(-52.62 925.31) rotate(-45)"/><path class="cls-22" d="M913,520.11s-23.1,3.3-28-5,8.8-8.25-9.35-18.14-9.9-21.45-9.9-21.45l7.7-15.4,3.85-13.2-5.5-1.65-3.85,8.8-4.4-6.6-4.95-8.8-7.7,5.5,5,10.45-4.4,1.65-6-8.25-2.75,7.15,2.75,8.25-5.5-2.75-2.75,6.6,3.3,4.4s6.05,12.11,8.25,14.3,12.1,19.25,12.1,19.25,1.1,17.06,6.6,18.15S878.93,535,878.93,535l18.15,6.61,12.65.55,11.55.55,8.49-5.68Z"/><path class="cls-11" d="M1001.83,570.71h11a12,12,0,0,1,12,12v49.18a12,12,0,0,1-12,12h-11a12,12,0,0,1-12-12V582.72A12,12,0,0,1,1001.83,570.71Z"/><path class="cls-11" d="M956.14,570.71h11a12,12,0,0,1,12,12v49.18a12,12,0,0,1-12,12h-11a12,12,0,0,1-12-12V582.72A12,12,0,0,1,956.14,570.71Z"/><ellipse class="cls-24" cx="954.89" cy="640.41" rx="27.31" ry="11.51"/><ellipse class="cls-24" cx="1013.89" cy="640.41" rx="27.31" ry="11.51"/><ellipse class="cls-11" cx="986.44" cy="517.7" rx="77.28" ry="30.88"/><ellipse class="cls-11" cx="984.3" cy="543.58" rx="67.29" ry="64.25"/><circle class="cls-22" cx="985.02" cy="427.38" r="77.46"/><ellipse class="cls-13" cx="1008.13" cy="410.84" rx="20.88" ry="28.56" transform="translate(-52.16 657.62) rotate(-35.27)"/><ellipse class="cls-13" cx="957.8" cy="411.91" rx="28.56" ry="20.88" transform="translate(68.39 955.98) rotate(-54.73)"/><circle cx="1000.72" cy="422.03" r="2.86"/><circle cx="963.6" cy="422.74" r="2.86"/><path d="M987,373.62a12.11,12.11,0,0,0,.7,6.61c1.13,2.4,3.39,3.12,5.9,3a192.4,192.4,0,0,0,19.75-1.92,1.51,1.51,0,0,0,1.05-1.85,1.55,1.55,0,0,0-1.85-1.05q-8.25,1.2-16.58,1.69c-1.78.1-4.57.83-5.55-1.15-.79-1.6-.61-3.64-.41-5.36.21-1.9-2.79-1.88-3,0Z"/><path d="M978.41,373.27c.2,1.68.38,3.69-.37,5.27-1,2.06-3.75,1.34-5.59,1.23q-8.33-.5-16.58-1.69a1.56,1.56,0,0,0-1.85,1.05,1.52,1.52,0,0,0,1.05,1.85,189.38,189.38,0,0,0,19.75,1.92c2.43.1,4.69-.57,5.84-2.89a12.12,12.12,0,0,0,.76-6.74c-.23-1.9-3.23-1.92-3,0Z"/><ellipse class="cls-22" cx="892.36" cy="510.77" rx="11.55" ry="20.35" transform="translate(-99.8 780.6) rotate(-45)"/><ellipse class="cls-22" cx="878.07" cy="521.76" rx="11.55" ry="20.35" transform="translate(-111.76 773.71) rotate(-45)"/><path d="M881.17,512.72c4.11-.24,7.81,2.08,10.3,5.22,2.82,3.58,4.15,8.08,5.34,12.39a1.5,1.5,0,0,0,2.89-.8c-1.36-4.93-3-9.94-6.29-13.94-3-3.58-7.49-6.15-12.23-5.88-1.93.12-1.94,3.12,0,3Z"/><path d="M1076.22,530.78a18.73,18.73,0,0,1,18.39-12.06c1.93.11,1.92-2.89,0-3A21.77,21.77,0,0,0,1073.33,530c-.65,1.81,2.25,2.6,2.89.79Z"/><path d="M857.66,474.23l.09-2.13c.08-1.73-2.46-2-3-.4a24.18,24.18,0,0,0-.31,12.88c.47,1.87,3.36,1.08,2.89-.8a21.12,21.12,0,0,1,.31-11.29l-3-.4-.09,2.13a1.51,1.51,0,0,0,3,0Z"/><path d="M1107.11,466.28a34.83,34.83,0,0,1,.16,12.05,1.55,1.55,0,0,0,1.08,1.83,1.53,1.53,0,0,0,1.83-1.08,39.26,39.26,0,0,0-.17-13.59,1.5,1.5,0,0,0-2.9.79Z"/><path class="cls-11" d="M1008.75,465.35c-20.53-9.24-44.78-5.5-47.14,0s-3.54,11.78,6.68,11,20-7.46,21.21-2,16.89,1.18,16.89,1.18S1016.61,468.88,1008.75,465.35Z"/><path class="cls-25" d="M527.33,127.05v59.74h-20.6V53.19h28.54c20.32,0,32.32,8.15,32.32,32.2v5.08c0,20.53-8.42,25.76-13.59,27.87,7.79,3.66,12.24,9.28,12.24,27.4,0,11.25-.2,33,1.23,41h-19.9c-1.78-8.07-1.4-30-1.4-39.72,0-16.28-2.1-20-14.06-20Zm0-17h4.72C543,110,547,105.93,547,91.4V86.82c0-10.33-2.14-16.61-13.82-16.61h-5.82Z"/><path class="cls-25" d="M645.07,88.65V151c0,25.6-10.87,37.7-33.5,37.7-21.72,0-31.49-12.41-31.49-37.35V88.5c0-25.59,12.88-37.26,32.79-37.26C633.13,51.24,645.07,62.94,645.07,88.65Zm-44-2v67.2c0,11.1,4,16.32,11.44,16.32,8,0,11.58-4.87,11.58-16.61V86.48c0-10.6-3.25-16.47-11.61-16.47C605.05,70,601.06,75.32,601.06,86.63Z"/><path class="cls-25" d="M660.32,186.79V53.19h23.86c5.33,18.85,21.27,84.8,22.69,91.88h.22c-1-16.43-1-35.23-1-57.18V53.19h19v133.6h-23c-4.22-16-22-89.23-23.34-94.84h-.2c1,16.17.9,34.28.9,58.31v36.53Z"/><path class="cls-25" d="M743.12,186.79V53.19H767c5.33,18.85,21.27,84.8,22.69,91.88h.22c-.95-16.43-1-35.23-1-57.18V53.19h19v133.6H785c-4.21-16-22-89.23-23.33-94.84h-.2c1,16.17.9,34.28.9,58.31v36.53Z"/><path class="cls-25" d="M846.52,53.19v133.6h-20.6V53.19Z"/><path class="cls-25" d="M914.51,125.76H885.14v42.08H919l-2.61,18.95H864.54V53.19h51.59V72.32h-31v34.49h29.37Z"/><path class="cls-25" d="M976.52,127.05v59.74H955.91V53.19h28.54c20.33,0,32.33,8.15,32.33,32.2v5.08c0,20.53-8.42,25.76-13.6,27.87,7.79,3.66,12.25,9.28,12.25,27.4,0,11.25-.2,33,1.23,41H996.75c-1.77-8.07-1.4-30-1.4-39.72,0-16.28-2.09-20-14.05-20Zm0-17h4.72c10.91,0,14.91-4.11,14.91-18.64V86.82c0-10.33-2.13-16.61-13.81-16.61h-5.82Z"/><path class="cls-25" d="M1047.74,186.79V139.47a13.48,13.48,0,0,0-.75-4.53l-24.9-81.75h22.79c5.36,21.7,11.48,46.6,13.53,61.15h.2c2.75-15.78,8.75-39.84,13.68-61.15h21.89l-25.43,83.51a23.71,23.71,0,0,0-.4,5.09v45Z"/><path class="cls-25" d="M1162.32,186.79h-16.06a80.15,80.15,0,0,1-1.13-10c-3.7,8.89-11.45,12-20.08,12-19.66,0-26-14.23-26-36.87V89.12c0-21.82,8.49-37.88,31.71-37.88,28.06,0,31,20.63,31,35v4.34h-20.6V85.2c0-7-1-15.19-10.44-15.19-7.5,0-10.71,5.2-10.71,15.86v68.35c0,10.69,3.1,16.28,10.54,16.28,8.94,0,11.11-7.48,11.11-21.21v-19.5H1130V112.07h32.31Z"/><path class="cls-25" d="M1228.9,125.76h-29.37v42.08h33.85l-2.61,18.95h-51.84V53.19h51.59V72.32h-31v34.49h29.37Z"/><path class="cls-25" d="M1261.32,147.47v8.26c0,9.94,3,15.47,10.81,15.47,8,0,10.11-7.6,10.11-16.28,0-14.36-3.1-18.81-17.42-30.12s-22.06-18.61-22.06-38.38c0-17.61,5.33-35.38,29.44-35.35,24.66,0,28.47,17.6,28.47,32.09V90.3h-20.43V83.71c0-9.3-1.57-14.93-8.41-14.93s-8.47,5.82-8.47,14.68c0,9.44,1.8,14.06,13.54,22.65,20,14.78,26.12,23.37,26.12,45.72,0,18.95-6.64,36.91-31.57,36.91-24.71,0-30.74-15.74-30.74-33.34v-7.93Z"/><path class="cls-25" d="M1329.34,72.32h-21.45V53.19h63.63V72.32H1350V186.79h-20.61Z"/><path class="cls-25" d="M1442.64,88.65V151c0,25.6-10.86,37.7-33.5,37.7-21.71,0-31.49-12.41-31.49-37.35V88.5c0-25.59,12.88-37.26,32.8-37.26C1430.7,51.24,1442.64,62.94,1442.64,88.65Zm-44-2v67.2c0,11.1,4,16.32,11.44,16.32,8,0,11.59-4.87,11.59-16.61V86.48c0-10.6-3.26-16.47-11.61-16.47C1402.62,70,1398.63,75.32,1398.63,86.63Z"/><path class="cls-25" d="M1457.9,53.19h29.71c21.22,0,32,10.48,32,34.11v7.87c0,22-7.88,36.7-33.19,36.7h-8v54.92h-20.6ZM1478.5,115h5.65c12.84,0,15-7.5,15-20.54V87.92c0-9.71-1.76-17.71-13.21-17.71h-7.48Z"/><rect class="cls-26" x="379.38" y="658.57" width="43.15" height="90.26" rx="12" transform="matrix(0.77, -0.63, 0.63, 0.77, -354.49, 411.72)"/><rect class="cls-26" x="423.05" y="622.95" width="43.15" height="90.26" rx="12" transform="translate(-322.16 431.31) rotate(-39.2)"/><ellipse class="cls-22" cx="325.51" cy="670.05" rx="24.88" ry="47.11" transform="translate(-416.47 736.35) rotate(-69.2)"/><ellipse class="cls-22" cx="427.69" cy="588.44" rx="24.88" ry="47.11" transform="translate(-88.53 75.9) rotate(-9.2)"/><ellipse class="cls-27" cx="350.15" cy="598.55" rx="95.32" ry="38.08" transform="translate(-299.48 355.96) rotate(-39.2)"/><ellipse class="cls-27" cx="371.5" cy="622.33" rx="84.12" ry="79.25" transform="translate(-309.7 374.8) rotate(-39.2)"/><circle class="cls-22" cx="275.06" cy="506.11" r="95.54"/><path class="cls-5" d="M296.76,440.41s29.11,3,30.42,17.8,18.09,22.18,18.09,22.18-18.18-2.78-20.65-9.29c-1.14-3-1.91-13.4-5.46-17.14-4.15-4.39-11.94-5.6-11.94-5.6S295.32,448.4,296.76,440.41Z"/><path class="cls-5" d="M321.8,434.2s29.11,3,30.42,17.8,18.09,22.18,18.09,22.18-18.18-2.79-20.65-9.3c-1.14-3-1.91-13.39-5.46-17.14-4.15-4.39-11.94-5.6-11.94-5.6S320.36,442.19,321.8,434.2Z"/><path class="cls-5" d="M282.29,422.67s29.11,3,30.42,17.8,18.09,22.18,18.09,22.18-18.18-2.79-20.65-9.3c-1.14-3-1.91-13.39-5.45-17.14-4.16-4.39-11.95-5.59-11.95-5.59S280.85,430.66,282.29,422.67Z"/><path class="cls-5" d="M303.83,432.37s29.12,3,30.43,17.8,18.08,22.18,18.08,22.18-18.18-2.79-20.65-9.3c-1.13-3-1.91-13.39-5.45-17.14-4.15-4.38-11.95-5.59-11.95-5.59S302.4,440.36,303.83,432.37Z"/><path class="cls-5" d="M310,424.54s29.11,3,30.42,17.8,18.09,22.18,18.09,22.18-18.18-2.78-20.65-9.29c-1.14-3-1.91-13.4-5.45-17.14-4.16-4.39-11.95-5.6-11.95-5.6S308.51,432.53,310,424.54Z"/><path class="cls-5" d="M289.64,415s29.12,3,30.43,17.8S338.15,455,338.15,455s-18.18-2.79-20.65-9.3c-1.13-3-1.91-13.39-5.45-17.14-4.15-4.39-11.95-5.59-11.95-5.59S288.21,423,289.64,415Z"/><path class="cls-5" d="M204.44,513.42s-3,29.11,11.32,33.38S233.84,569,233.84,569s.93-18.37-5-22.1c-2.71-1.71-12.73-4.56-15.69-8.79-3.46-5-3.08-12.83-3.08-12.83S212.56,513.62,204.44,513.42Z"/><path class="cls-5" d="M192.64,494.07s-3,29.11,11.31,33.38S222,549.63,222,549.63s.93-18.37-4.95-22.1c-2.71-1.71-12.74-4.56-15.69-8.79-3.47-5-3.08-12.83-3.08-12.83S200.76,494.27,192.64,494.07Z"/><path class="cls-5" d="M195.14,518.73s-3,29.12,11.31,33.38,18.09,22.18,18.09,22.18.93-18.37-4.95-22.09c-2.71-1.72-12.74-4.57-15.69-8.8-3.47-4.95-3.08-12.83-3.08-12.83S203.26,518.93,195.14,518.73Z"/><path class="cls-5" d="M193.68,539.24s-3,29.11,11.32,33.38,18.08,22.18,18.08,22.18.93-18.37-5-22.1c-2.71-1.71-12.74-4.57-15.69-8.79-3.47-4.95-3.08-12.83-3.08-12.83S201.8,539.44,193.68,539.24Z"/><path class="cls-5" d="M183.74,498.48s-3,29.12,11.32,33.39S213.14,554,213.14,554s.93-18.36-4.95-22.09c-2.71-1.72-12.73-4.57-15.69-8.79-3.46-4.95-3.08-12.83-3.08-12.83S191.86,498.68,183.74,498.48Z"/><path class="cls-5" d="M186.24,523.15s-3,29.11,11.32,33.38,18.08,22.18,18.08,22.18.93-18.37-4.95-22.1C208,554.9,198,552,195,547.82c-3.46-5-3.08-12.83-3.08-12.83S194.36,523.35,186.24,523.15Z"/><path class="cls-5" d="M178.69,502s-3,29.11,11.31,33.38,18.09,22.18,18.09,22.18.93-18.37-5-22.1c-2.71-1.71-12.74-4.57-15.7-8.79-3.46-5-3.07-12.83-3.07-12.83S186.8,502.24,178.69,502Z"/><ellipse cx="243.15" cy="498.33" rx="6.38" ry="3.96" transform="translate(-260.22 265.79) rotate(-39.2)"/><ellipse cx="273.92" cy="472.67" rx="6.38" ry="4.4" transform="translate(-237.08 279.46) rotate(-39.2)"/><rect x="224.1" y="495.8" width="24.22" height="6.16" transform="translate(-262.12 261.52) rotate(-39.2)"/><rect x="264.02" y="463.24" width="24.22" height="6.16" transform="translate(-232.57 279.43) rotate(-39.2)"/><path d="M274.55,508.33c-.61,8.33-1.18,18.19,4.73,24.93,4.81,5.48,13.13,7.26,19.55,3.67a15.65,15.65,0,0,0,7.3-9.07c.57-1.85-2.33-2.64-2.89-.79a12.57,12.57,0,0,1-7.52,8,12.82,12.82,0,0,1-11.09-1.23c-8.57-5.18-7.71-16.91-7.08-25.53.13-1.92-2.87-1.92-3,0Z"/><ellipse class="cls-13" cx="237.08" cy="507.06" rx="25.76" ry="35.22" transform="translate(-34.13 17.41) rotate(-3.92)"/><ellipse class="cls-13" cx="286.02" cy="468.85" rx="25.76" ry="35.22" transform="translate(-242.3 618.87) rotate(-74.47)"/><circle cx="252.87" cy="511.99" r="3.52"/><circle cx="288.91" cy="483.74" r="3.52"/><path d="M307.05,573.61c-2.82-6.54-.36-14.17,3.72-19.59s10.71-9.76,17.66-9.15c4.36.37,8,3.1,11.44,5.6,1.56,1.14,3.06-1.46,1.51-2.59-3.45-2.54-7.1-5.11-11.43-5.82a19.5,19.5,0,0,0-11.44,1.81A28.22,28.22,0,0,0,303.59,562a20.1,20.1,0,0,0,.87,13.14c.76,1.77,3.35.24,2.59-1.51Z"/><path d="M270.94,433.68a33.25,33.25,0,0,0-28.72,17.62l2.36-.31a1.9,1.9,0,0,1-.53-1.9c.46-1.87-2.43-2.67-2.89-.8a5,5,0,0,0,1.3,4.83,1.51,1.51,0,0,0,2.35-.31,30.22,30.22,0,0,1,26.13-16.13c1.93,0,1.93-3,0-3Z"/><path d="M223.67,466l3.07.45v-2.9a33.06,33.06,0,0,0-21,18.3,1.54,1.54,0,0,0,.54,2.05,1.51,1.51,0,0,0,2.05-.54,30.2,30.2,0,0,1,19.17-16.91c1.31-.38,1.54-2.67,0-2.9l-3.07-.44a1.56,1.56,0,0,0-1.85,1,1.52,1.52,0,0,0,1,1.85Z"/><ellipse class="cls-28" cx="423.19" cy="746.64" rx="33.68" ry="18.05" transform="translate(-376.63 435.43) rotate(-39.2)"/><ellipse class="cls-28" cx="481.23" cy="695.9" rx="33.68" ry="18.05" transform="translate(-331.5 460.69) rotate(-39.2)"/><rect class="cls-29" x="1473.04" y="621.89" width="40.68" height="85.09" rx="12" transform="translate(714.21 -772.42) rotate(37.54)"/><rect class="cls-29" x="1515.17" y="654.27" width="40.68" height="85.09" rx="12" transform="translate(742.67 -791.39) rotate(37.54)"/><ellipse class="cls-30" cx="1458.78" cy="694.12" rx="17.02" ry="31.75" transform="translate(19.47 1427.77) rotate(-52.46)"/><ellipse class="cls-30" cx="1517.9" cy="736.41" rx="17.02" ry="31.75" transform="translate(9.03 1491.16) rotate(-52.46)"/><ellipse class="cls-22" cx="1513.93" cy="579.45" rx="44.41" ry="23.45" transform="translate(740.71 2004.2) rotate(-82.46)"/><ellipse class="cls-22" cx="1610.92" cy="655.57" rx="44.41" ry="23.45" transform="translate(-128.26 665.01) rotate(-22.46)"/><ellipse class="cls-31" cx="1584.87" cy="586.6" rx="35.9" ry="89.87" transform="translate(153.98 1485.74) rotate(-52.46)"/><ellipse class="cls-31" cx="1567.71" cy="610.1" rx="74.72" ry="69.47" transform="translate(128.64 1481.32) rotate(-52.46)"/><circle class="cls-22" cx="1649.69" cy="507.37" r="90.07"/><ellipse class="cls-13" cx="1640.61" cy="472.72" rx="33.21" ry="24.28" transform="translate(-66.43 505.76) rotate(-17.18)"/><ellipse class="cls-13" cx="1686.26" cy="509.37" rx="33.21" ry="24.28" transform="translate(1110.43 2174.11) rotate(-87.73)"/><circle cx="1639.5" cy="488.28" r="3.32"/><circle cx="1673.22" cy="515.25" r="3.32"/><rect class="cls-11" x="1590.9" y="469.85" width="175.17" height="8.3" transform="translate(636.5 -924.66) rotate(37.54)"/><rect class="cls-32" x="1602.13" y="446.91" width="62.68" height="49.39" rx="12" transform="translate(625.72 -897.73) rotate(37.54)"/><rect class="cls-32" x="1657.75" y="489.66" width="62.68" height="49.39" rx="12" transform="translate(663.29 -922.77) rotate(37.54)"/><path d="M1683.81,451.59c-1.08,1.8-2.6,4.2-4.77,4.79a3.31,3.31,0,0,1-3-.95c-1.21-1-2.36-2-3.52-3q-6.91-6.06-13.3-12.66c-1.35-1.39-3.47.73-2.13,2.12q7.56,7.77,15.8,14.82c2.3,2,4.71,3.62,7.79,2.29,2.56-1.1,4.35-3.55,5.74-5.87a1.5,1.5,0,0,0-2.59-1.51Z"/><path d="M1692.18,457c-2,2-4,4.54-4.26,7.46-.3,3.38,2.27,5.16,4.75,6.87q8.68,6,17.91,11.12c1.68.94,3.2-1.65,1.51-2.59q-7.87-4.41-15.39-9.42-1.8-1.2-3.59-2.45c-1-.66-2-1.39-2.21-2.65-.31-2.33,1.92-4.7,3.4-6.22s-.77-3.51-2.12-2.12Z"/><path d="M1610.39,522.42c2.8,2.39,2.62,6.52,1.61,9.75-.54,1.73-1.42,3.72-3.11,4.61-1.11.58-2.89.63-3.65-.54-1.06-1.61-3.66-.1-2.59,1.52a5.7,5.7,0,0,0,6.6,2.1c2.63-.86,4.24-3.22,5.21-5.68,1.76-4.42,2-10.52-2-13.88a1.53,1.53,0,0,0-2.12,0,1.51,1.51,0,0,0,0,2.12Z"/><path d="M1636.28,544.86a86,86,0,0,0-21.47-13.45,1.54,1.54,0,0,0-2,.53,1.52,1.52,0,0,0,.54,2.06,83.6,83.6,0,0,1,20.86,13c1.46,1.25,3.59-.86,2.12-2.12Z"/><rect class="cls-11" x="589.59" y="642.13" width="41.35" height="86.5" rx="12"/><rect class="cls-11" x="643.6" y="642.13" width="41.35" height="86.5" rx="12"/><ellipse class="cls-33" cx="600.77" cy="730.74" rx="32.28" ry="17.3"/><ellipse class="cls-33" cx="674.61" cy="728.21" rx="32.28" ry="17.3"/><ellipse class="cls-22" cx="698.66" cy="618.92" rx="45.15" ry="23.84" transform="translate(-186.68 914.52) rotate(-60)"/><ellipse class="cls-22" cx="573.34" cy="617.66" rx="23.84" ry="45.15" transform="matrix(0.87, -0.5, 0.5, 0.87, -232.02, 369.42)"/><ellipse class="cls-25" cx="634.95" cy="579.47" rx="91.35" ry="36.5"/><ellipse class="cls-34" cx="636.13" cy="609.06" rx="69.88" ry="75.95"/><circle class="cls-22" cx="636.63" cy="472.72" r="91.56"/><ellipse class="cls-13" cx="609.33" cy="453.16" rx="33.76" ry="24.68" transform="translate(-112.51 688.94) rotate(-54.73)"/><ellipse class="cls-13" cx="668.82" cy="454.43" rx="24.68" ry="33.76" transform="translate(-139.63 469.65) rotate(-35.27)"/><circle cx="618.07" cy="466.39" r="3.38"/><circle cx="661.95" cy="467.24" r="3.38"/><path d="M631.06,409.18c.24,2,.43,4.38-.43,6.29-1.16,2.55-4.26,1.82-6.53,1.69-6.7-.38-13.39-1.06-20-2-1.89-.28-2.7,2.61-.8,2.89a227.06,227.06,0,0,0,23.27,2.27c2.88.12,5.48-.7,6.76-3.48a14.36,14.36,0,0,0,.76-7.63c-.22-1.9-3.23-1.92-3,0Z"/><path d="M641.17,408.75a14.4,14.4,0,0,0,.76,7.64c1.27,2.78,3.88,3.59,6.76,3.47A224.08,224.08,0,0,0,672,417.6c1.91-.28,1.1-3.17-.79-2.89q-10,1.46-20,2c-2.23.13-5.31.85-6.49-1.6-.92-1.92-.72-4.34-.47-6.39s-2.78-1.89-3,0Z"/><rect class="cls-11" x="559.21" y="399.93" width="156.96" height="19.83"/><rect class="cls-11" x="571.44" y="361.96" width="129.54" height="41.77" rx="12"/><polygon class="cls-35" points="689.68 585.93 714.34 538.21 726.36 543.38 701.64 590.16 689.68 585.93"/><rect class="cls-35" x="682.98" y="557.66" width="24.47" height="64.98" rx="12" transform="translate(289.79 -226.69) rotate(23.28)"/><path d="M654.2,525.26a138.1,138.1,0,0,0-40.85,4c-1.87.48-1.08,3.37.8,2.9a135.06,135.06,0,0,1,40.05-3.92c1.93.1,1.93-2.9,0-3Z"/><rect class="cls-36" x="1285.65" y="603.46" width="34.81" height="72.82" rx="12" transform="matrix(1, 0.04, -0.04, 1, 26.39, -51.16)"/><rect class="cls-37" x="1331.08" y="605.26" width="34.81" height="72.82" rx="12" transform="translate(26.5 -52.96) rotate(2.27)"/><ellipse class="cls-30" cx="1293.56" cy="677.71" rx="14.56" ry="27.17" transform="translate(565.1 1943.38) rotate(-87.73)"/><ellipse class="cls-30" cx="1355.76" cy="678.04" rx="14.56" ry="27.17" transform="translate(624.49 2005.85) rotate(-87.73)"/><ellipse class="cls-22" cx="1275.42" cy="570.34" rx="20.07" ry="38.01" transform="translate(-118.9 658.91) rotate(-27.73)"/><ellipse class="cls-22" cx="1380.8" cy="575.58" rx="38.01" ry="20.07" transform="translate(156.86 1435.75) rotate(-57.73)"/><ellipse class="cls-38" cx="1328.52" cy="540.27" rx="30.73" ry="76.9" transform="translate(736 1846.32) rotate(-87.73)"/><path class="cls-38" d="M1300.52,519.06c2.53,1,63.39,12.34,64.94-.65s30.59,96.94,33.09,98.75-142.12-1.36-142.12-1.36Z"/><circle class="cls-22" cx="1334.65" cy="452.88" r="77.08"/><ellipse class="cls-13" cx="1311.18" cy="433.16" rx="28.42" ry="20.78" transform="matrix(0.61, -0.79, 0.79, 0.61, 168.73, 1208.81)"/><ellipse class="cls-13" cx="1361.19" cy="436.21" rx="20.78" ry="28.42" transform="translate(-17.98 811.74) rotate(-33)"/><circle cx="1318.09" cy="444.58" r="2.84"/><circle cx="1354.98" cy="446.76" r="2.84"/><path class="cls-39" d="M1405.3,490.37s13.81,40.25,13.84,18-7.47-52.41-7.47-52.41,9.1,32.78,13.11,39.79,16,28,15.77,12.61S1417,432,1417,432s-12-44.15-36.58-49.41-37.15-13.46-51-8.88-61.25,11.28-66.93,24.75-23.24,46.19-19.17,51.49-20.43,61.71-6.28,50.28,3.29,3.55,4.07,5.3,8.52,1.19,10.4-3,8.93,12.34,10.2,2.11,16.26-7.68,9.77-12.77,1.4-31.32,1.4-31.32l1.26-10.23,9.63-27,13-24.32,30.85-.49,28,5.39s20.32,5.95,21.89,9.44,12.26,36.45,12.26,36.45l7.6,24.29Z"/><path class="cls-10" d="M1309.89,498.88c2.66-2.47,12.27-7.22,14.74-4.56s6-1.47,6-1.47,13.66,5,12.58,8.75-13.94,4-13.94,4l-11.63-2.57Z"/><rect class="cls-10" x="312.95" y="577.13" width="1316.3" height="343.22" rx="94.04"/><rect class="cls-11" x="434.9" y="663.88" width="197.38" height="132.01" rx="12"/><rect class="cls-11" x="653.65" y="662.62" width="197.38" height="132.01" rx="12"/><rect class="cls-11" x="874.92" y="663.88" width="197.38" height="132.01" rx="12"/><rect class="cls-11" x="1102.48" y="666.4" width="197.38" height="132.01" rx="12"/><rect class="cls-11" x="1325" y="668.91" width="197.38" height="132.01" rx="12"/><rect class="cls-11" x="361.98" y="655.08" width="51.55" height="118.18" rx="12"/><rect class="cls-11" x="1545.01" y="655.08" width="51.55" height="118.18" rx="12"/><circle class="cls-12" cx="921.14" cy="785.94" r="110.29"/><circle class="cls-12" cx="1267.33" cy="793.09" r="110.29"/><circle class="cls-13" cx="1083.51" cy="801.26" r="24.51"/><rect class="cls-13" x="942.59" y="641.96" width="24.51" height="189.94" rx="6" transform="translate(630.79 -424.87) rotate(36.76)"/><rect class="cls-13" x="994.19" y="630.55" width="24.51" height="48.4" rx="6"/><rect class="cls-13" x="991.61" y="599.61" width="24.51" height="61.27" rx="6" transform="translate(1634.1 -373.62) rotate(90)"/><rect class="cls-13" x="1173.92" y="615.41" width="24.51" height="59.46" rx="6" transform="translate(2372.34 1290.27) rotate(-180)"/><rect class="cls-13" x="1164.3" y="580.09" width="24.51" height="67.63" rx="6" transform="translate(1790.46 -562.65) rotate(90)"/><rect class="cls-13" x="976.29" y="708.33" width="24.51" height="189.94" rx="6" transform="translate(1791.85 -185.24) rotate(90)"/><rect class="cls-13" x="1123.34" y="638.89" width="24.51" height="189.94" rx="6" transform="translate(682.41 -540.01) rotate(37.54)"/><rect class="cls-13" x="1074.32" y="585.79" width="24.51" height="189.94" rx="6" transform="translate(1767.34 -405.81) rotate(90)"/><rect class="cls-13" x="1219.33" y="642.98" width="24.51" height="189.94" rx="6" transform="translate(2666.52 689.63) rotate(147.14)"/><rect class="cls-40" x="1685.31" y="793.58" width="6.75" height="21.54" transform="translate(3094.88 -429.04) rotate(113.28)"/><rect class="cls-25" x="1712.61" y="797.41" width="6.75" height="37.37" transform="translate(3143.75 -437.74) rotate(113.28)"/><rect class="cls-41" x="1732.16" y="822.17" width="6.75" height="4.67" transform="translate(3178.75 -443.96) rotate(113.28)"/><rect class="cls-42" x="1736.69" y="824.12" width="6.75" height="4.67" transform="translate(3186.85 -445.4) rotate(113.28)"/><rect class="cls-43" x="1739.67" y="826.83" width="6.75" height="1.82" transform="translate(3192.19 -446.35) rotate(113.28)"/><rect class="cls-40" x="1765.2" y="789.76" width="6.75" height="21.54" transform="translate(3481.04 -113.9) rotate(127.54)"/><rect class="cls-25" x="1788.76" y="799.96" width="6.75" height="37.37" transform="translate(3533.32 -103.44) rotate(127.54)"/><rect class="cls-41" x="1805.64" y="829.27" width="6.75" height="4.67" transform="translate(3570.75 -95.94) rotate(127.54)"/><rect class="cls-42" x="1809.55" y="832.28" width="6.75" height="4.67" transform="translate(3579.43 -94.21) rotate(127.54)"/><rect class="cls-43" x="1812.12" y="835.68" width="6.75" height="1.82" transform="translate(3585.14 -93.06) rotate(127.54)"/><rect class="cls-40" x="1880.51" y="798.45" width="6.75" height="21.54" transform="translate(1855.58 2859.36) rotate(-112.46)"/><rect class="cls-25" x="1853.05" y="801.89" width="6.75" height="37.37" transform="translate(1807.14 2849.67) rotate(-112.46)"/><rect class="cls-41" x="1833.38" y="826.37" width="6.75" height="4.67" transform="translate(1772.45 2842.73) rotate(-112.46)"/><rect class="cls-42" x="1828.83" y="828.25" width="6.75" height="4.67" transform="translate(1764.42 2841.12) rotate(-112.46)"/><rect class="cls-43" x="1825.83" y="830.92" width="6.75" height="1.82" transform="translate(1759.13 2840.06) rotate(-112.46)"/><rect class="cls-40" x="214.15" y="796.21" width="6.75" height="21.54" transform="translate(989.92 1126.26) rotate(127.54)"/><rect class="cls-25" x="237.71" y="806.4" width="6.75" height="37.37" transform="translate(1042.19 1136.72) rotate(127.54)"/><rect class="cls-41" x="254.59" y="835.72" width="6.75" height="4.67" transform="translate(1079.63 1144.21) rotate(127.54)"/><rect class="cls-42" x="258.5" y="838.72" width="6.75" height="4.67" transform="translate(1088.3 1145.95) rotate(127.54)"/><rect class="cls-43" x="261.07" y="842.13" width="6.75" height="1.82" transform="translate(1094.01 1147.09) rotate(127.54)"/><rect class="cls-40" x="173.41" y="787.19" width="6.75" height="21.54" transform="translate(-276.32 1478.16) rotate(-133.84)"/><rect class="cls-25" x="151.98" y="799.85" width="6.75" height="37.37" transform="translate(-327.44 1497.54) rotate(-133.84)"/><rect class="cls-41" x="136.63" y="830.94" width="6.75" height="4.67" transform="translate(-364.06 1511.42) rotate(-133.84)"/><rect class="cls-42" x="133.07" y="834.36" width="6.75" height="4.67" transform="translate(-372.54 1514.64) rotate(-133.84)"/><rect class="cls-43" x="130.73" y="838.03" width="6.75" height="1.82" transform="translate(-378.12 1516.75) rotate(-133.84)"/><rect class="cls-40" x="136.39" y="777.25" width="6.75" height="21.54" transform="matrix(-0.77, -0.64, 0.64, -0.77, -256.54, 1483.32)"/><rect class="cls-25" x="117.39" y="792.18" width="6.75" height="37.37" transform="translate(-304.75 1511.6) rotate(-140.26)"/><rect class="cls-41" x="103.79" y="824.9" width="6.75" height="4.67" transform="translate(-339.28 1531.85) rotate(-140.26)"/><rect class="cls-42" x="100.63" y="828.69" width="6.75" height="4.67" transform="translate(-347.28 1536.54) rotate(-140.26)"/><rect class="cls-43" x="98.56" y="832.61" width="6.75" height="1.82" transform="translate(-352.54 1539.63) rotate(-140.26)"/><rect class="cls-40" x="31.88" y="781.18" width="6.75" height="21.54" transform="translate(684.65 1246.6) rotate(127.54)"/><rect class="cls-25" x="55.44" y="791.37" width="6.75" height="37.37" transform="translate(736.93 1257.07) rotate(127.54)"/><rect class="cls-41" x="72.31" y="820.69" width="6.75" height="4.67" transform="translate(774.37 1264.56) rotate(127.54)"/><rect class="cls-42" x="76.22" y="823.7" width="6.75" height="4.67" transform="translate(783.04 1266.29) rotate(127.54)"/><rect class="cls-43" x="78.79" y="827.1" width="6.75" height="1.82" transform="translate(788.75 1267.44) rotate(127.54)"/><rect class="cls-40" x="238.95" y="791.31" width="6.75" height="21.54" transform="translate(1025.94 1098.73) rotate(127.54)"/><rect class="cls-25" x="262.51" y="801.5" width="6.75" height="37.37" transform="translate(1078.22 1109.19) rotate(127.54)"/><rect class="cls-41" x="279.38" y="830.82" width="6.75" height="4.67" transform="translate(1115.65 1116.68) rotate(127.54)"/><rect class="cls-42" x="283.29" y="833.83" width="6.75" height="4.67" transform="translate(1124.33 1118.42) rotate(127.54)"/><rect class="cls-43" x="285.86" y="837.23" width="6.75" height="1.82" transform="translate(1130.04 1119.56) rotate(127.54)"/><rect class="cls-40" x="1717.14" y="778.56" width="6.75" height="21.54" transform="translate(3394.81 -93.82) rotate(127.54)"/><rect class="cls-25" x="1740.7" y="788.75" width="6.75" height="37.37" transform="translate(3447.08 -83.36) rotate(127.54)"/><rect class="cls-41" x="1757.57" y="818.07" width="6.75" height="4.67" transform="translate(3484.52 -75.86) rotate(127.54)"/><rect class="cls-42" x="1761.48" y="821.08" width="6.75" height="4.67" transform="translate(3493.19 -74.13) rotate(127.54)"/><rect class="cls-43" x="1764.05" y="824.48" width="6.75" height="1.82" transform="translate(3498.9 -72.99) rotate(127.54)"/><rect class="cls-40" x="1649.04" y="792.85" width="6.75" height="21.54" transform="translate(3296.54 -16.83) rotate(127.54)"/><rect class="cls-25" x="1672.6" y="803.04" width="6.75" height="37.37" transform="translate(3348.82 -6.37) rotate(127.54)"/><rect class="cls-41" x="1689.48" y="832.36" width="6.75" height="4.67" transform="translate(3386.25 1.12) rotate(127.54)"/><rect class="cls-42" x="1693.39" y="835.36" width="6.75" height="4.67" transform="translate(3394.93 2.86) rotate(127.54)"/><rect class="cls-43" x="1695.96" y="838.77" width="6.75" height="1.82" transform="translate(3400.63 4) rotate(127.54)"/><rect class="cls-40" x="1865.96" y="776.76" width="6.75" height="21.54" transform="translate(2041.98 2808.61) rotate(-117.73)"/><rect class="cls-25" x="1839.65" y="782.67" width="6.75" height="37.37" transform="translate(1991.2 2805.59) rotate(-117.73)"/><rect class="cls-41" x="1820.82" y="808.92" width="6.75" height="4.67" transform="translate(1954.83 2803.42) rotate(-117.73)"/><rect class="cls-42" x="1816.45" y="811.21" width="6.75" height="4.67" transform="translate(1946.41 2802.92) rotate(-117.73)"/><rect class="cls-43" x="1813.58" y="814.15" width="6.75" height="1.82" transform="translate(1940.86 2802.59) rotate(-117.73)"/><rect class="cls-40" x="996.16" y="309.89" width="6.75" height="21.54" transform="translate(1862.87 -276.44) rotate(127.54)"/><rect class="cls-25" x="1019.72" y="320.08" width="6.75" height="37.37" transform="translate(1915.14 -265.98) rotate(127.54)"/><rect class="cls-41" x="1036.59" y="349.4" width="6.75" height="4.67" transform="translate(1952.58 -258.49) rotate(127.54)"/><rect class="cls-42" x="1040.5" y="352.4" width="6.75" height="4.67" transform="translate(1961.26 -256.75) rotate(127.54)"/><rect class="cls-43" x="1043.07" y="355.81" width="6.75" height="1.82" transform="translate(1966.96 -255.61) rotate(127.54)"/><rect class="cls-40" x="1332.84" y="495.56" width="6.75" height="21.54" transform="translate(2551.93 -244.56) rotate(127.54)"/><rect class="cls-25" x="1356.4" y="505.76" width="6.75" height="37.37" transform="translate(2604.21 -234.1) rotate(127.54)"/><rect class="cls-41" x="1373.27" y="535.07" width="6.75" height="4.67" transform="translate(2641.64 -226.61) rotate(127.54)"/><rect class="cls-42" x="1377.18" y="538.08" width="6.75" height="4.67" transform="translate(2650.32 -224.87) rotate(127.54)"/><rect class="cls-43" x="1379.75" y="541.48" width="6.75" height="1.82" transform="translate(2656.02 -223.73) rotate(127.54)"/><rect class="cls-40" x="1632.08" y="539.82" width="6.75" height="21.54" transform="translate(3288.61 55.67) rotate(144.73)"/><rect class="cls-25" x="1649.24" y="556.16" width="6.75" height="37.37" transform="translate(3333.79 89.83) rotate(144.73)"/><rect class="cls-41" x="1661.53" y="589.88" width="6.75" height="4.67" transform="translate(3366.14 114.29) rotate(144.73)"/><rect class="cls-42" x="1664.38" y="593.91" width="6.75" height="4.67" transform="translate(3373.64 119.96) rotate(144.73)"/><rect class="cls-43" x="1666.25" y="597.99" width="6.75" height="1.82" transform="translate(3378.57 123.68) rotate(144.73)"/><rect class="cls-40" x="638.04" y="524.04" width="6.75" height="21.54" transform="translate(1438.47 784.08) rotate(157.54)"/><rect class="cls-25" x="649.39" y="543.59" width="6.75" height="37.37" transform="translate(1470.8 832.59) rotate(157.54)"/><rect class="cls-41" x="657.52" y="579.61" width="6.75" height="4.67" transform="matrix(-0.92, 0.38, -0.38, -0.92, 1493.95, 867.33)"/><rect class="cls-42" x="659.4" y="584.16" width="6.75" height="4.67" transform="translate(1499.31 875.38) rotate(157.54)"/><rect class="cls-43" x="660.64" y="588.59" width="6.75" height="1.82" transform="translate(1502.84 880.67) rotate(157.54)"/><rect class="cls-40" x="306.35" y="549.85" width="6.75" height="21.54" transform="translate(543.15 1157.05) rotate(-172.46)"/><rect class="cls-25" x="302.44" y="571.39" width="6.75" height="37.37" transform="translate(531.51 1215.19) rotate(-172.46)"/><rect class="cls-41" x="299.65" y="608.83" width="6.75" height="4.67" transform="translate(523.18 1256.84) rotate(-172.46)"/><rect class="cls-42" x="299" y="613.72" width="6.75" height="4.67" transform="translate(521.25 1266.49) rotate(-172.46)"/><rect class="cls-43" x="298.58" y="618.37" width="6.75" height="1.82" transform="translate(519.98 1272.83) rotate(-172.46)"/><path class="cls-25" d="M1114.78,411.92l.09-22.17s-161.24-35.31-52.22-64.62a278.58,278.58,0,0,1,108.17-7.41c50.49,6.48,82.31,24.68,82.31,24.68s124.51,57.86-.92,53.15-106.64-3-106.64-3Z"/><path d="M1047.81,337.34l-1,2-.94-.09,3.2-6.68,1.16.11,2,7.17-1-.09-.59-2.15Zm2.68-.54c-.51-1.89-.79-2.89-.89-3.43h0c-.23.57-.76,1.7-1.46,3.2Z"/><path d="M1054.66,338l-1,2-.94-.09,3.19-6.68,1.17.11,2,7.18-1-.1-.6-2.15Zm2.68-.54c-.51-1.88-.79-2.89-.89-3.43h0c-.23.57-.76,1.7-1.46,3.21Z"/><path d="M1061.51,338.64l-1,2-.94-.08,3.2-6.69,1.16.12,2,7.17-1-.1-.59-2.15Zm2.67-.54c-.5-1.88-.78-2.88-.89-3.43h0c-.23.57-.76,1.7-1.45,3.21Z"/><path d="M1068.3,338.31l-.29,3.05-.94-.09.66-6.93,2.79.27c1.46.14,2.17,1,2.06,2.07a1.6,1.6,0,0,1-1.37,1.51c.57.2,1,.67.92,1.88l0,.29a5,5,0,0,0,0,1.38l-.92-.08a4.72,4.72,0,0,1,0-1.5V340c.1-1-.15-1.44-1.42-1.56Zm.07-.78,1.55.15c1.09.11,1.61-.25,1.68-1s-.38-1.2-1.35-1.3l-1.66-.15Z"/><path d="M1079.44,342.45l-.73-.07a4.62,4.62,0,0,1,0-.95,2.4,2.4,0,0,1-2.31.82c-2.05-.19-3-1.81-2.81-3.78s1.52-3.52,3.67-3.32a2.67,2.67,0,0,1,2.7,2.39l-1-.09a1.86,1.86,0,0,0-1.85-1.53c-1.65-.16-2.43,1.06-2.58,2.6s.4,2.82,2,3,2.09-.84,2.2-2v-.07l-2-.2.07-.78,2.93.28Z"/><path d="M1081.83,335.69l.94.09-.27,2.89,3.71.35.27-2.89,1,.09-.66,6.92-1-.09.31-3.24-3.71-.36-.31,3.25-.94-.09Z"/><path d="M1089.08,343.37l.14-1.37.89.08-.13,1.38Zm.31-2.33.22-3.38.11-1.22,1,.09-.12,1.22-.43,3.36Z"/><path d="M1100.7,341.49c.12-1.28.26-2.59.36-3.31h0c-.41,1.1-1.85,4-2.87,6.06l-.85-.08c-.45-1.83-1.32-5.28-1.53-6.49h0c0,.8-.14,2.34-.26,3.53l-.26,2.76-.89-.09.66-6.92,1.41.14c.6,2.22,1.33,5.09,1.49,6h0c.24-.65,1.69-3.58,2.73-5.59l1.37.13-.66,6.92-.92-.09Z"/><path d="M1103.48,339.65l.9.08-.48,5-.9-.09Zm.22-2.26.9.08-.11,1.09-.9-.09Z"/><path d="M1105.79,341.15c0-.44.09-.88.11-1.27l.87.08a7.69,7.69,0,0,1,0,.83,1.65,1.65,0,0,1,1.73-.79,1.68,1.68,0,0,1,1.55,2.08l-.31,3.25-.9-.09.3-3.13c.07-.76-.18-1.3-1-1.38-1-.09-1.44.59-1.54,1.61l-.25,2.67-.9-.09Z"/><path d="M1120.35,343.37c.13-1.29.26-2.59.36-3.32h0c-.42,1.09-1.85,3.95-2.88,6.05L1117,346c-.45-1.83-1.33-5.27-1.54-6.49h0c0,.8-.14,2.34-.25,3.53l-.27,2.76-.89-.08.66-6.93,1.41.14c.61,2.22,1.33,5.09,1.49,6h0c.23-.65,1.69-3.58,2.72-5.6l1.37.13-.65,6.93-.93-.09Z"/><path d="M1128.7,345.16a2.72,2.72,0,0,1-3,1.78c-2.13-.21-3.06-1.88-2.87-3.83s1.42-3.48,3.58-3.28a2.58,2.58,0,0,1,2.6,2.36l-.94-.09a1.79,1.79,0,0,0-1.77-1.5c-1.57-.15-2.35,1.17-2.48,2.57s.34,2.85,2,3a1.83,1.83,0,0,0,2-1.11Z"/><path d="M1133.07,345.17c-.09,1,.37,1.81,1.25,1.89a1.21,1.21,0,0,0,1.33-.66l.9.09a2.12,2.12,0,0,1-2.33,1.3,2.32,2.32,0,0,1-2-2.81c.15-1.5,1-2.62,2.62-2.47a2.18,2.18,0,0,1,2,2.59,2.68,2.68,0,0,1,0,.42Zm2.82-.35a1.33,1.33,0,0,0-1.18-1.62c-.92-.09-1.38.49-1.55,1.36Z"/><path d="M1138,344.32c.07-.71.1-1.1.12-1.37l.88.08c0,.14,0,.54-.07,1a1.87,1.87,0,0,1,1.86-1l-.08.87a1.63,1.63,0,0,0-1.93,1.68l-.23,2.45-.9-.09Z"/><path d="M1148.18,348.54c-.15,1.61-.92,2.47-2.62,2.31s-2-1.06-2-1.75l.91.09a1.19,1.19,0,0,0,1.2,1c1.17.12,1.54-.58,1.65-1.74l0-.41a1.61,1.61,0,0,1-1.71.73,2.23,2.23,0,0,1-1.91-2.7,2.36,2.36,0,0,1,2.49-2.43c1,.09,1.37.59,1.46.93,0-.23.08-.56.1-.66l.85.08c0,.29-.11,1-.16,1.45Zm-3.51-2.45c-.1,1.06.4,1.84,1.25,1.92,1.12.1,1.52-.6,1.62-1.72s-.13-1.83-1.24-1.94C1145.34,344.26,1144.78,345,1144.67,346.09Z"/><path d="M1153.55,348.4a8,8,0,0,0,0,1.1l-.85-.08a2.93,2.93,0,0,1,0-.67,1.62,1.62,0,0,1-1.67.63,1.55,1.55,0,0,1-1.6-1.71c.1-1.12,1.06-1.55,2.61-1.4l.88.08,0-.43c0-.44-.05-1-1-1.09s-1,.32-1.19.7l-.86-.08c.13-.69.65-1.45,2.14-1.3,1.27.12,1.93.69,1.82,1.84Zm-.75-1.45-.84-.08c-1-.09-1.61.13-1.68.84a.9.9,0,0,0,.92,1c1.25.12,1.5-.68,1.59-1.59Zm-1.74-4.33a1.1,1.1,0,1,1,1,1.06A1,1,0,0,1,1151.06,342.62Zm1.63.15a.53.53,0,0,0-.49-.59.53.53,0,1,0,.49.59Z"/><path d="M1155.74,347.33c-.09,1,.37,1.81,1.25,1.89a1.21,1.21,0,0,0,1.33-.66l.9.09a2.11,2.11,0,0,1-2.32,1.3,2.31,2.31,0,0,1-2.05-2.81c.14-1.5,1-2.62,2.61-2.47a2.17,2.17,0,0,1,2,2.59,2.68,2.68,0,0,1,0,.42Zm2.82-.35a1.33,1.33,0,0,0-1.18-1.62c-.92-.09-1.38.49-1.55,1.36Z"/><path d="M1160.2,345.05l.9.09.14-1.49.89.08-.14,1.49,1.15.11-.07.71-1.15-.11-.28,3c0,.49,0,.75.52.8a2.36,2.36,0,0,0,.46,0l-.06.65a2.32,2.32,0,0,1-.79,0c-.8-.08-1.12-.52-1-1.35l.3-3.16-.9-.09Z"/><path d="M1166.72,345.67l.9.09-.48,5-.9-.08Zm.22-2.26.89.09-.1,1.09-.9-.09Z"/><path d="M1171.83,349.79a1.17,1.17,0,0,0,1.19,1c.76.07,1.09-.22,1.13-.68s-.17-.71-1.14-1c-1.45-.49-1.72-1-1.65-1.65s.67-1.36,2-1.23,1.81.93,1.81,1.64l-.86-.09a1,1,0,0,0-1.06-.88c-.72-.07-1,.25-1,.58s.16.58,1.09.89c1.54.52,1.8,1.06,1.73,1.81s-.87,1.46-2.16,1.33-1.94-.85-2-1.76Z"/><path d="M1175.87,346.54l.9.09.14-1.49.89.09-.14,1.48,1.15.11-.07.71-1.14-.1-.29,2.95c0,.49.06.75.52.8a2.36,2.36,0,0,0,.46,0l-.06.66a2.55,2.55,0,0,1-.78,0c-.81-.07-1.13-.51-1-1.35l.3-3.16-.9-.09Z"/><path d="M1180.36,347c.6,2.5.94,3.88,1,4.41h0c.22-.56.7-1.68,1.79-4.14l.9.09-2.36,5.1c-.67,1.42-1.1,1.76-2.16,1.66L1179,354l.08-.76a2.45,2.45,0,0,0,.42.07c.66.06.93-.19,1.32-1l-1.44-5.42Z"/><path d="M1185.69,349.91c.48-.46,1.73-1.51,2.51-2.19l1.07.1-2.15,1.78,1.89,3.29-1-.1-1.5-2.69-.85.66-.17,1.79-.9-.09.7-7.3.89.08Z"/><path d="M1190.85,350.4c.48-.45,1.73-1.51,2.51-2.19l1.06.1-2.14,1.78,1.89,3.29-1.05-.1-1.5-2.69-.86.66-.17,1.79-.89-.09.69-7.3.9.08Z"/><path d="M1195.53,351.12c-.09,1,.37,1.81,1.25,1.89a1.2,1.2,0,0,0,1.33-.66l.9.09a2.13,2.13,0,0,1-2.33,1.3,2.32,2.32,0,0,1-2-2.81c.14-1.5,1-2.62,2.61-2.47a2.18,2.18,0,0,1,2,2.59c0,.16,0,.29,0,.42Zm2.82-.35a1.33,1.33,0,0,0-1.19-1.62c-.91-.09-1.37.49-1.54,1.36Z"/><path d="M1200.48,350.27c.07-.7.1-1.1.12-1.37l.88.08c0,.15,0,.54-.07,1a1.84,1.84,0,0,1,1.86-1l-.09.87a1.63,1.63,0,0,0-1.92,1.68L1201,354l-.89-.08Z"/><path d="M1202.37,355.31a6.93,6.93,0,0,0,1-2.53l.92.08a6,6,0,0,1-1.16,2.52Z"/><path d="M1212.64,352.58a2.43,2.43,0,0,1-2.7,2.42,2.39,2.39,0,0,1-2.13-2.86,2.43,2.43,0,0,1,2.7-2.42A2.38,2.38,0,0,1,1212.64,352.58Zm-3.91-.36c-.1,1.11.39,2,1.32,2.06s1.56-.63,1.67-1.77-.35-2-1.32-2.06S1208.84,351.07,1208.73,352.22Z"/><path d="M1218,355.19c-.16,1.61-.93,2.47-2.62,2.31s-2-1.06-2-1.75l.91.09a1.19,1.19,0,0,0,1.2,1c1.18.12,1.54-.58,1.65-1.74l0-.41a1.61,1.61,0,0,1-1.71.73,2.24,2.24,0,0,1-1.91-2.7,2.37,2.37,0,0,1,2.5-2.43c1,.09,1.37.58,1.45.93,0-.23.09-.56.11-.66l.84.08c0,.29-.11,1-.15,1.45Zm-3.51-2.46c-.11,1.07.4,1.84,1.24,1.93,1.12.1,1.52-.6,1.63-1.72s-.14-1.84-1.25-1.94C1215.1,350.91,1214.54,351.64,1214.44,352.73Z"/><path d="M1222.39,352.26c0-.44.08-.88.11-1.27l.87.08a7.7,7.7,0,0,1,0,.83,1.65,1.65,0,0,1,1.73-.79,1.68,1.68,0,0,1,1.55,2.09l-.31,3.24-.9-.09.3-3.13c.08-.76-.18-1.3-1-1.38-1-.09-1.44.59-1.53,1.61l-.26,2.67L1222,356Z"/><path d="M1232.07,355.51c0,.49-.1,1.17-.13,1.47l-.87-.09a6,6,0,0,1,0-.75,1.56,1.56,0,0,1-1.66.72,1.62,1.62,0,0,1-1.54-2l.32-3.32.89.09-.3,3.13c-.06.66.09,1.29,1,1.38s1.37-.39,1.49-1.65l.26-2.63.89.08Z"/><path d="M1236.63,356a1.18,1.18,0,0,0,1.19,1c.76.07,1.09-.22,1.13-.68s-.17-.71-1.14-1c-1.45-.5-1.72-1-1.65-1.65s.67-1.37,2-1.24,1.81.93,1.82,1.64l-.87-.08a1,1,0,0,0-1-.89c-.73-.07-1,.25-1,.58s.16.59,1.09.9c1.54.51,1.8,1.05,1.73,1.8s-.86,1.46-2.16,1.34-1.94-.85-2-1.77Z"/><path d="M1242,355.27c.49-.45,1.74-1.51,2.51-2.19l1.07.1-2.14,1.78,1.88,3.29-1-.1-1.51-2.69-.85.66-.17,1.79-.89-.09.69-7.3.9.09Z"/><path d="M1250.09,357.6a6.29,6.29,0,0,0,0,1.1l-.86-.08a2.56,2.56,0,0,1,0-.67,1.64,1.64,0,0,1-1.68.63,1.56,1.56,0,0,1-1.6-1.71c.11-1.12,1.07-1.55,2.61-1.4l.88.08,0-.43c0-.44-.06-1-1-1.09s-1.05.32-1.18.7l-.87-.08c.13-.69.65-1.45,2.14-1.3,1.27.12,1.93.69,1.82,1.84Zm-.75-1.45-.84-.08c-1-.09-1.61.13-1.68.84a.9.9,0,0,0,.92,1c1.25.12,1.5-.68,1.59-1.59Z"/><path d="M1251.53,358.85l.7-7.31.89.09-.69,7.3Z"/><path d="M1257.92,354.36l-.49,5.21c-.14,1.4-.52,1.89-1.64,1.78l-.35-.05.07-.74.19,0c.63.06.75-.23.82-.94l.51-5.36Zm-.78-1.25.1-1.09.9.08-.1,1.09Z"/><path d="M1259.74,357.24c-.1,1,.37,1.81,1.25,1.89a1.19,1.19,0,0,0,1.32-.66l.91.09a2.13,2.13,0,0,1-2.33,1.3,2.32,2.32,0,0,1-2.05-2.81c.14-1.5,1-2.62,2.61-2.47a2.18,2.18,0,0,1,2,2.59c0,.16,0,.28-.06.42Zm2.82-.35a1.34,1.34,0,0,0-1.19-1.62c-.91-.09-1.37.49-1.55,1.36Z"/><path d="M1268.75,360c-.16,1.61-.93,2.47-2.63,2.31s-2-1.06-2-1.75l.91.09a1.19,1.19,0,0,0,1.2,1c1.18.12,1.54-.58,1.65-1.74l0-.41a1.61,1.61,0,0,1-1.71.73,2.23,2.23,0,0,1-1.91-2.7,2.37,2.37,0,0,1,2.5-2.43c1,.09,1.36.59,1.45.93,0-.23.08-.56.1-.66l.85.08c0,.29-.11,1-.15,1.45Zm-3.51-2.46c-.11,1.07.39,1.84,1.24,1.93,1.12.1,1.52-.6,1.63-1.72s-.14-1.83-1.25-1.94C1265.9,355.75,1265.34,356.48,1265.24,357.57Z"/><path d="M1046.29,350.71l-.25,2.61-.9-.09.56-5.79c0-.42.08-.84.1-1.24l.87.09a6.32,6.32,0,0,1,0,.79,1.82,1.82,0,0,1,1.78-.75c1.21.12,2,1.18,1.84,2.71-.17,1.8-1.27,2.68-2.52,2.56A1.6,1.6,0,0,1,1046.29,350.71Zm3-1.72c.1-1.07-.33-1.85-1.21-1.94-1.08-.1-1.57.52-1.69,1.75s.17,1.95,1.26,2.05C1048.62,350.94,1049.2,350.23,1049.32,349Z"/><path d="M1052,349.5c-.09,1,.37,1.8,1.25,1.89a1.21,1.21,0,0,0,1.33-.66l.9.08a2.1,2.1,0,0,1-2.32,1.31,2.31,2.31,0,0,1-2.05-2.81c.14-1.5,1-2.62,2.61-2.47a2.17,2.17,0,0,1,2,2.59,2.84,2.84,0,0,1,0,.42Zm2.82-.35a1.34,1.34,0,0,0-1.18-1.63c-.91-.08-1.38.5-1.55,1.37Z"/><path d="M1057,348.55c0-.44.08-.88.11-1.27l.87.08a7.7,7.7,0,0,1,0,.83,1.66,1.66,0,0,1,1.73-.79,1.67,1.67,0,0,1,1.55,2.08l-.31,3.25-.89-.09.29-3.13c.08-.76-.18-1.3-1-1.38-1-.09-1.45.59-1.54,1.61l-.26,2.67-.89-.09Z"/><path d="M1067.4,346l-.56,5.88c0,.47-.09.94-.13,1.43l-.86-.08a6.45,6.45,0,0,1,0-.73,1.63,1.63,0,0,1-1.72.68c-1.33-.12-2.05-1.25-1.91-2.79a2.41,2.41,0,0,1,2.58-2.47c.92.08,1.3.48,1.41.78l.26-2.78Zm-4.21,4.45c-.12,1.22.42,1.94,1.23,2,1.21.12,1.56-.73,1.67-1.83s-.07-1.85-1.24-2C1063.94,348.56,1063.31,349.21,1063.19,350.43Z"/><path d="M1068.23,353.43l.7-7.3.89.08-.69,7.31Z"/><path d="M1071.42,351.35c-.09,1,.37,1.81,1.25,1.89a1.21,1.21,0,0,0,1.33-.66l.9.09a2.12,2.12,0,0,1-2.33,1.3,2.32,2.32,0,0,1-2-2.81c.15-1.5,1-2.62,2.61-2.47a2.18,2.18,0,0,1,2,2.59c0,.15,0,.28-.05.42Zm2.82-.35a1.33,1.33,0,0,0-1.18-1.62c-.92-.09-1.38.49-1.55,1.36Z"/><path d="M1075.87,354.16l.14-1.47.94.09-.14,1.47Z"/><path d="M1078,354.36l.14-1.47.94.09-.14,1.47Z"/><path d="M1080,354.56l.14-1.48.94.09-.14,1.48Z"/><path d="M1085.25,351.27c0-.43.08-.89.11-1.3l.87.09c0,.15,0,.52,0,.77a1.64,1.64,0,0,1,1.6-.75,1.44,1.44,0,0,1,1.35,1,1.77,1.77,0,0,1,1.74-.74,1.6,1.6,0,0,1,1.46,2l-.32,3.32-.88-.09.3-3.21c.06-.58-.1-1.22-.91-1.3s-1.27.51-1.35,1.4l-.28,2.9-.88-.08.3-3.19c.07-.64-.07-1.24-.88-1.32s-1.3.54-1.39,1.5l-.27,2.79-.89-.08Z"/><path d="M1094.32,353.53c-.1,1,.37,1.81,1.25,1.89a1.21,1.21,0,0,0,1.33-.66l.9.09a2.13,2.13,0,0,1-2.33,1.3,2.32,2.32,0,0,1-2-2.81c.14-1.5,1-2.62,2.61-2.47a2.18,2.18,0,0,1,2,2.59,4.23,4.23,0,0,1-.06.42Zm2.82-.35a1.33,1.33,0,0,0-1.19-1.62c-.91-.09-1.37.49-1.54,1.36Z"/><path d="M1099.28,352.58c0-.44.08-.88.11-1.27l.87.08a7.87,7.87,0,0,1,0,.84,1.64,1.64,0,0,1,1.72-.8,1.69,1.69,0,0,1,1.56,2.09l-.31,3.24-.9-.08.3-3.14c.07-.76-.19-1.3-1-1.38-1-.09-1.44.6-1.54,1.61l-.25,2.67-.9-.08Z"/><path d="M1111.27,356.42a7.62,7.62,0,0,0,0,1.11l-.86-.08a2.58,2.58,0,0,1,0-.67,1.65,1.65,0,0,1-1.68.63,1.56,1.56,0,0,1-1.6-1.71c.11-1.13,1.07-1.56,2.61-1.41l.89.09,0-.43c0-.45,0-1-1-1.1s-1,.32-1.18.71l-.87-.08c.14-.69.66-1.45,2.15-1.31,1.27.13,1.92.69,1.81,1.84Zm-.74-1.44-.84-.08c-1-.1-1.62.13-1.69.84a.91.91,0,0,0,.93,1c1.25.12,1.49-.68,1.58-1.6Z"/><path d="M1112.71,357.67l.7-7.3.9.08-.7,7.31Z"/><path d="M1115.14,357.9l.7-7.3.89.08L1116,358Z"/><path d="M1118.33,355.82c-.09,1,.37,1.81,1.25,1.89a1.21,1.21,0,0,0,1.33-.66l.9.09a2.12,2.12,0,0,1-2.33,1.3,2.32,2.32,0,0,1-2-2.81c.14-1.5,1-2.62,2.61-2.47a2.18,2.18,0,0,1,2,2.59c0,.15,0,.28,0,.42Zm2.82-.35a1.33,1.33,0,0,0-1.19-1.62c-.91-.09-1.37.49-1.54,1.36Z"/><path d="M1125.82,355.21c.07-.7.1-1.1.12-1.37l.88.08c0,.15,0,.54-.07,1a1.84,1.84,0,0,1,1.85-1l-.08.87a1.63,1.63,0,0,0-1.92,1.68l-.24,2.45-.89-.08Z"/><path d="M1130.17,354.24c.61,2.5.94,3.88,1,4.41h0c.22-.56.7-1.68,1.79-4.14l.91.09-2.37,5.1c-.67,1.42-1.1,1.76-2.16,1.66a4.18,4.18,0,0,1-.55-.09l.07-.75.42.06c.66.07.94-.19,1.32-1l-1.44-5.43Z"/><path d="M1138.61,359.68c-.15,1.62-.93,2.47-2.62,2.31s-2-1.05-2-1.75l.92.09a1.19,1.19,0,0,0,1.19,1c1.18.11,1.54-.59,1.65-1.75l0-.41a1.6,1.6,0,0,1-1.7.73,2.24,2.24,0,0,1-1.92-2.69c.16-1.65,1.24-2.56,2.5-2.44,1,.1,1.37.59,1.45.93,0-.22.09-.56.11-.66l.85.08c0,.29-.11,1-.16,1.46Zm-3.51-2.45c-.1,1.06.4,1.84,1.25,1.92,1.12.11,1.51-.59,1.62-1.71s-.14-1.84-1.25-1.95C1135.77,355.4,1135.2,356.14,1135.1,357.23Z"/><path d="M1140.87,358c-.09,1,.37,1.8,1.25,1.89a1.21,1.21,0,0,0,1.33-.66l.9.08a2.11,2.11,0,0,1-2.33,1.3,2.31,2.31,0,0,1-2-2.8c.14-1.5,1-2.62,2.61-2.47a2.17,2.17,0,0,1,2,2.59c0,.15,0,.28,0,.42Zm2.82-.35a1.35,1.35,0,0,0-1.19-1.63c-.91-.08-1.37.5-1.54,1.37Z"/><path d="M1145.82,357.12c.07-.71.1-1.11.12-1.37l.88.08c0,.14,0,.54-.07,1a1.84,1.84,0,0,1,1.86-1l-.09.87a1.63,1.63,0,0,0-1.92,1.68l-.24,2.45-.89-.09Z"/><path d="M1152.61,360.84l-.25,2.61-.89-.09.55-5.79c0-.41.08-.84.11-1.23l.87.08a6.46,6.46,0,0,1,0,.8,1.8,1.8,0,0,1,1.78-.76c1.2.12,2,1.18,1.84,2.71-.18,1.81-1.27,2.68-2.53,2.56A1.59,1.59,0,0,1,1152.61,360.84Zm3-1.72c.1-1.07-.33-1.85-1.22-1.93-1.07-.11-1.56.52-1.68,1.74s.17,1.95,1.25,2.05S1155.53,360.36,1155.65,359.12Z"/><path d="M1161.46,361.21a7.89,7.89,0,0,0,0,1.1l-.85-.08a3,3,0,0,1,0-.67,1.62,1.62,0,0,1-1.67.63,1.55,1.55,0,0,1-1.6-1.71c.1-1.13,1.06-1.55,2.61-1.41l.88.09,0-.43c0-.45,0-1-1-1.1s-1,.33-1.19.71l-.86-.08c.13-.69.65-1.45,2.14-1.31,1.27.13,1.93.7,1.82,1.84Zm-.75-1.45-.84-.08c-1-.1-1.62.13-1.68.84a.9.9,0,0,0,.92,1c1.25.12,1.5-.68,1.59-1.6Zm-1.74-4.33a1.1,1.1,0,0,1,2.18.19,1,1,0,0,1-1.18.87A1,1,0,0,1,1159,355.43Zm1.63.14a.52.52,0,0,0-.49-.58.53.53,0,1,0,.49.58Z"/><path d="M1166.44,362.16l-.25,2.61-.89-.09.55-5.79c0-.42.08-.84.11-1.24l.87.09c0,.17,0,.47,0,.79a1.81,1.81,0,0,1,1.78-.75c1.2.12,2,1.18,1.83,2.71-.17,1.8-1.26,2.68-2.52,2.56A1.61,1.61,0,0,1,1166.44,362.16Zm3-1.72c.1-1.07-.33-1.85-1.22-1.94-1.08-.1-1.56.52-1.68,1.75s.17,1.95,1.25,2.05S1169.36,361.68,1169.48,360.44Z"/><path d="M1172.15,361c-.09,1,.37,1.8,1.25,1.89a1.21,1.21,0,0,0,1.33-.66l.9.08a2.12,2.12,0,0,1-2.33,1.31,2.32,2.32,0,0,1-2-2.81c.14-1.5,1-2.62,2.61-2.47a2.17,2.17,0,0,1,2,2.59c0,.15,0,.28,0,.42Zm2.82-.35a1.35,1.35,0,0,0-1.19-1.63c-.91-.08-1.37.5-1.54,1.37Z"/><path d="M1177.1,360.1c.07-.71.1-1.1.12-1.37l.88.08c0,.14,0,.54-.07,1a1.83,1.83,0,0,1,1.85-1l-.08.87a1.63,1.63,0,0,0-1.92,1.68l-.24,2.45-.89-.09Z"/><path d="M1180.6,360.43c.07-.7.1-1.1.12-1.37l.88.08c0,.15,0,.54-.07,1a1.84,1.84,0,0,1,1.86-1l-.09.87a1.63,1.63,0,0,0-1.92,1.68l-.24,2.45-.89-.08Z"/><path d="M1188.47,362.33a2.42,2.42,0,0,1-2.69,2.42,2.66,2.66,0,0,1,.56-5.27A2.37,2.37,0,0,1,1188.47,362.33Zm-3.91-.36c-.1,1.11.39,2,1.32,2.06s1.56-.63,1.67-1.77-.35-2-1.32-2.06S1184.67,360.82,1184.56,362Z"/><path d="M1189.76,361.21c0-.44.09-.89.11-1.28l.87.09a7.69,7.69,0,0,1,0,.83,1.63,1.63,0,0,1,1.72-.79,1.68,1.68,0,0,1,1.56,2.08l-.31,3.25-.9-.09.3-3.13c.07-.77-.19-1.31-1-1.38-1-.1-1.44.59-1.54,1.6l-.25,2.67-.9-.08Z"/><path d="M1195.56,361.76c0-.44.08-.88.11-1.28l.87.09c0,.15,0,.68,0,.83a1.62,1.62,0,0,1,1.72-.79,1.67,1.67,0,0,1,1.55,2.08l-.31,3.25-.89-.09.29-3.13c.08-.76-.18-1.31-1-1.38-1-.1-1.45.59-1.54,1.61l-.26,2.67-.89-.09Z"/><path d="M1201.75,363.77c-.09,1,.37,1.81,1.25,1.89a1.21,1.21,0,0,0,1.33-.66l.9.09a2.12,2.12,0,0,1-2.33,1.3,2.32,2.32,0,0,1-2.05-2.81c.14-1.5,1-2.62,2.61-2.47a2.17,2.17,0,0,1,2,2.59c0,.15,0,.28,0,.42Zm2.82-.35a1.33,1.33,0,0,0-1.19-1.62c-.91-.09-1.37.49-1.54,1.36Z"/><path d="M1206.71,362.82c0-.44.09-.88.11-1.27l.87.08a7.69,7.69,0,0,1,0,.83,1.8,1.8,0,0,1,3.28,1.3l-.31,3.24-.9-.09.3-3.13c.07-.76-.19-1.3-1-1.38-1-.09-1.44.59-1.54,1.61l-.25,2.67-.9-.09Z"/><path d="M1212.76,367.21l.13-1.37.89.08-.13,1.38Zm.31-2.33.21-3.38.12-1.22,1,.09-.12,1.22-.42,3.36Z"/><path d="M1045,356.29l.94.09-.28,2.89,3.72.35.27-2.89,1,.09-.66,6.93-1-.09.31-3.25-3.71-.35-.31,3.24-.94-.09Z"/><path d="M1053,358.94l-.49,5.21c-.14,1.4-.52,1.89-1.64,1.78l-.35-.05.07-.74.19,0c.63.06.75-.24.81-.94l.52-5.37Zm-.78-1.26.1-1.08.9.08-.11,1.09Z"/><path d="M1058.05,362.09c-.12,1.11.38,1.86,1.28,1.94a1.18,1.18,0,0,0,1.35-.69l.89.09a2.36,2.36,0,0,1-4.17.12,2,2,0,0,1-2,.81c-1.23-.11-1.74-.9-1.67-1.7.14-1.41,1.65-1.45,2.93-1.33l.6.06,0-.43a.94.94,0,0,0-1-1.13c-.74-.07-1,.21-1.18.73l-1-.1c.17-.91.91-1.41,2.14-1.3.87.09,1.46.41,1.63,1a2.09,2.09,0,0,1,1.84-.65,2.11,2.11,0,0,1,2,2.49c0,.15,0,.33-.06.46Zm-.84-.08-.66-.06c-1.08-.1-1.83,0-1.9.75a.94.94,0,0,0,1,1c1.06.1,1.48-.47,1.59-1.55Zm3.69-.27a1.3,1.3,0,0,0-1.19-1.56,1.38,1.38,0,0,0-1.58,1.29Z"/><path d="M1062.68,365l.7-7.31.89.09-.69,7.3Z"/><path d="M1066.06,364.65l-.25,2.61-.89-.09.55-5.8c0-.41.08-.84.11-1.23l.87.09c0,.16,0,.47,0,.79a1.83,1.83,0,0,1,1.79-.75c1.2.11,2,1.18,1.83,2.71-.17,1.8-1.27,2.68-2.52,2.56A1.6,1.6,0,0,1,1066.06,364.65Zm3-1.72c.11-1.07-.33-1.85-1.21-1.94-1.08-.1-1.57.52-1.68,1.75s.16,1.95,1.25,2.05S1069,364.17,1069.09,362.93Z"/><path d="M1073.89,362.25c0-.44.08-.9.11-1.3l.86.08a7.8,7.8,0,0,1,0,.78,1.6,1.6,0,0,1,1.59-.75,1.41,1.41,0,0,1,1.35,1,1.79,1.79,0,0,1,1.74-.75c.85.08,1.59.64,1.46,2l-.31,3.32-.88-.08.3-3.21c.06-.59-.1-1.23-.91-1.3s-1.27.5-1.36,1.4l-.27,2.89-.88-.08.3-3.18c.06-.65-.07-1.25-.89-1.33s-1.29.54-1.38,1.5l-.27,2.8-.89-.09Z"/><path d="M1082.67,361.77l.9.09-.48,5-.9-.08Zm.22-2.26.89.09-.1,1.09-.9-.09Z"/><path d="M1088.94,367c-.16,1.62-.93,2.47-2.63,2.31s-2-1.05-2-1.75l.91.09a1.2,1.2,0,0,0,1.2,1c1.18.11,1.54-.59,1.65-1.75l0-.41a1.59,1.59,0,0,1-1.71.73,2.22,2.22,0,0,1-1.91-2.69c.16-1.65,1.24-2.56,2.49-2.44,1,.1,1.37.59,1.46.93,0-.22.08-.55.1-.66l.85.08c0,.29-.11,1-.15,1.46Zm-3.52-2.45c-.1,1.06.4,1.84,1.25,1.92,1.12.11,1.52-.59,1.62-1.71s-.13-1.84-1.24-1.95C1086.09,362.72,1085.53,363.46,1085.42,364.55Z"/><path d="M1093.37,364.1c0-.43.08-.89.11-1.3l.86.08c0,.16,0,.53,0,.78a1.62,1.62,0,0,1,1.6-.75,1.43,1.43,0,0,1,1.35,1,1.79,1.79,0,0,1,1.74-.74,1.6,1.6,0,0,1,1.46,2l-.31,3.32-.89-.09.31-3.21c.06-.58-.1-1.22-.91-1.3s-1.27.51-1.36,1.4l-.28,2.9-.87-.08.3-3.19c.06-.65-.07-1.24-.89-1.32s-1.29.54-1.39,1.5l-.26,2.79-.89-.08Z"/><path d="M1102.43,366.36c-.09,1,.37,1.81,1.25,1.89a1.21,1.21,0,0,0,1.33-.66l.9.09a2.11,2.11,0,0,1-2.32,1.3,2.32,2.32,0,0,1-2.06-2.81c.15-1.5,1-2.62,2.62-2.47a2.17,2.17,0,0,1,2,2.59,2.84,2.84,0,0,1-.05.42Zm2.82-.35a1.33,1.33,0,0,0-1.18-1.62c-.92-.09-1.38.49-1.55,1.36Z"/><path d="M1112.1,362.3l-.56,5.87c0,.48-.09.94-.13,1.43l-.86-.08c0-.14,0-.52,0-.72a1.64,1.64,0,0,1-1.71.68c-1.33-.13-2.06-1.26-1.91-2.8s1.14-2.61,2.58-2.47c.92.09,1.29.49,1.41.78l.26-2.78Zm-4.21,4.45c-.12,1.21.41,1.93,1.23,2,1.21.11,1.56-.73,1.67-1.84s-.07-1.85-1.24-2C1108.63,364.87,1108,365.52,1107.89,366.75Z"/><path d="M1119.49,369.26a7.62,7.62,0,0,0,0,1.11l-.86-.08a2.58,2.58,0,0,1,0-.67,1.64,1.64,0,0,1-1.68.62,1.56,1.56,0,0,1-1.6-1.7c.11-1.13,1.07-1.56,2.61-1.41l.88.08,0-.43c0-.44-.06-1-1-1.09s-1,.32-1.18.7l-.87-.08c.13-.69.65-1.45,2.15-1.3,1.26.12,1.92.69,1.81,1.84Zm-.75-1.44-.84-.08c-1-.1-1.61.12-1.68.84a.9.9,0,0,0,.92,1c1.25.12,1.5-.68,1.59-1.6Z"/><path d="M1120.68,365.39l.89.09.14-1.49.9.09-.14,1.48,1.15.11-.07.71-1.15-.11-.28,3c0,.49.05.75.52.8a2.35,2.35,0,0,0,.46,0l-.06.66a2.61,2.61,0,0,1-.79,0c-.81-.07-1.13-.51-1-1.35l.3-3.16-.89-.09Z"/><path d="M1126.87,371.07l.42-4.33-.84-.08.07-.71.83.08.06-.61c.09-.92.53-1.71,1.68-1.61a2.09,2.09,0,0,1,.57.13l-.07.73a3,3,0,0,0-.45-.09c-.54-.05-.77.25-.84,1l0,.54,1,.1-.07.71-1-.09-.41,4.33Z"/><path d="M1131.11,366.39l-.5,5.21c-.13,1.39-.51,1.88-1.63,1.78l-.35-.06.07-.74a1.48,1.48,0,0,0,.19,0c.63.06.75-.24.81-.95l.52-5.36Zm-.78-1.26.1-1.09.9.09-.11,1.09Z"/><path d="M1132.92,369.27c-.09,1,.37,1.8,1.25,1.89a1.2,1.2,0,0,0,1.33-.67l.9.09a2.09,2.09,0,0,1-2.32,1.3,2.31,2.31,0,0,1-2-2.81c.14-1.5,1-2.62,2.61-2.47a2.17,2.17,0,0,1,2,2.6,2.55,2.55,0,0,1-.05.41Zm2.82-.36a1.33,1.33,0,0,0-1.18-1.62c-.91-.09-1.37.49-1.55,1.36Z"/><path d="M1137.87,368.41c.07-.7.1-1.1.12-1.37l.88.09c0,.14,0,.54-.07,1a1.84,1.84,0,0,1,1.86-1l-.08.87a1.63,1.63,0,0,0-1.93,1.68l-.23,2.44-.9-.08Z"/><path d="M1141.39,368.65c0-.44.08-.88.11-1.27l.87.08c0,.15,0,.68,0,.83a1.63,1.63,0,0,1,1.72-.79,1.67,1.67,0,0,1,1.55,2.08l-.31,3.25-.89-.09.3-3.13c.07-.76-.19-1.3-1-1.38-1-.09-1.44.59-1.54,1.61l-.26,2.67-.89-.09Z"/><path d="M1147.58,370.66c-.09,1,.37,1.81,1.25,1.89a1.19,1.19,0,0,0,1.33-.66l.9.09a2.12,2.12,0,0,1-2.33,1.3,2.32,2.32,0,0,1-2-2.81c.15-1.5,1-2.62,2.61-2.47a2.18,2.18,0,0,1,2,2.59c0,.16,0,.28,0,.42Zm2.82-.35a1.33,1.33,0,0,0-1.18-1.62c-.92-.09-1.38.49-1.55,1.36Z"/><path d="M1155.07,370.05c.07-.7.1-1.1.12-1.37l.88.09c0,.14,0,.54-.07,1a1.83,1.83,0,0,1,1.86-1l-.09.86a1.64,1.64,0,0,0-1.92,1.68l-.24,2.45-.89-.08Z"/><path d="M1159.42,369.08c.61,2.5.94,3.88,1,4.41h0c.22-.56.7-1.67,1.79-4.14l.91.09-2.37,5.1c-.67,1.43-1.1,1.76-2.16,1.66a4.05,4.05,0,0,1-.55-.08l.07-.76a2.83,2.83,0,0,0,.42.06c.66.07.94-.19,1.32-1l-1.44-5.43Z"/><path d="M1167.86,374.52c-.15,1.62-.93,2.47-2.62,2.31s-2-1.05-2-1.75l.92.09a1.19,1.19,0,0,0,1.19,1c1.18.11,1.54-.59,1.66-1.75l0-.41a1.58,1.58,0,0,1-1.7.73,2.22,2.22,0,0,1-1.91-2.69c.15-1.65,1.23-2.56,2.49-2.44,1,.1,1.37.59,1.45.94,0-.23.09-.56.11-.67l.85.08c0,.29-.11,1-.16,1.46Zm-3.51-2.45c-.1,1.06.4,1.84,1.25,1.92,1.12.11,1.51-.59,1.62-1.71s-.14-1.84-1.24-1.95S1164.45,371,1164.35,372.07Z"/><path d="M1170.12,372.81c-.09,1,.37,1.81,1.25,1.89a1.21,1.21,0,0,0,1.33-.66l.9.09a2.12,2.12,0,0,1-2.33,1.3,2.32,2.32,0,0,1-2-2.81c.14-1.5,1-2.62,2.61-2.47a2.17,2.17,0,0,1,2,2.59c0,.15,0,.28,0,.42Zm2.82-.35a1.33,1.33,0,0,0-1.19-1.62c-.91-.09-1.37.49-1.54,1.36Z"/><path d="M1175.07,372c.07-.71.1-1.1.12-1.37l.88.08c0,.14,0,.54-.07,1a1.86,1.86,0,0,1,1.86-1l-.09.87a1.63,1.63,0,0,0-1.92,1.68l-.23,2.45-.9-.09Z"/><path d="M1178.58,372.19c0-.43.09-.88.11-1.27l.88.08c0,.16,0,.69,0,.84a1.65,1.65,0,0,1,1.73-.8,1.69,1.69,0,0,1,1.55,2.09l-.31,3.24-.9-.08.3-3.13c.07-.77-.18-1.31-1-1.39-1-.09-1.44.6-1.54,1.61l-.25,2.67-.9-.08Z"/><path d="M1184.78,374.21c-.1,1,.37,1.8,1.25,1.89a1.21,1.21,0,0,0,1.33-.66l.9.08a2.11,2.11,0,0,1-2.33,1.3,2.31,2.31,0,0,1-2-2.8c.14-1.5,1-2.63,2.61-2.48a2.18,2.18,0,0,1,2,2.6c0,.15,0,.28-.06.42Zm2.82-.35a1.34,1.34,0,0,0-1.19-1.63c-.91-.08-1.37.5-1.54,1.37Z"/><path d="M1192.4,372.23l.89.08-.48,5.05-.89-.09Zm.21-2.26.9.08-.11,1.09-.89-.08Z"/><path d="M1194.71,373.73c0-.44.08-.88.11-1.27l.87.08a7.7,7.7,0,0,1,0,.83,1.65,1.65,0,0,1,1.73-.79,1.68,1.68,0,0,1,1.55,2.09l-.31,3.24-.9-.08.3-3.14c.07-.76-.18-1.3-1-1.38-1-.09-1.44.59-1.53,1.61l-.26,2.67-.9-.09Z"/><path d="M1205.15,371.16l-.56,5.88c0,.48-.09.94-.13,1.43l-.86-.08c0-.14,0-.53,0-.72a1.64,1.64,0,0,1-1.71.68c-1.33-.13-2.05-1.26-1.91-2.8a2.41,2.41,0,0,1,2.58-2.47c.92.08,1.3.48,1.41.78l.26-2.78Zm-4.21,4.45c-.12,1.22.41,1.94,1.23,2,1.21.12,1.56-.72,1.67-1.83s-.07-1.85-1.24-2C1201.69,373.74,1201.05,374.39,1200.94,375.61Z"/><path d="M1206.74,376.3c-.09,1,.37,1.81,1.25,1.89a1.21,1.21,0,0,0,1.33-.66l.9.09a2.11,2.11,0,0,1-2.32,1.3,2.32,2.32,0,0,1-2.06-2.81c.15-1.5,1-2.62,2.62-2.47a2.17,2.17,0,0,1,2,2.59,2.84,2.84,0,0,1,0,.42Zm2.82-.35a1.33,1.33,0,0,0-1.18-1.62c-.92-.09-1.38.49-1.55,1.36Z"/><path d="M1211.71,375.35c0-.44.08-.88.11-1.27l.87.08a7.7,7.7,0,0,1,0,.83,1.65,1.65,0,0,1,1.73-.79,1.68,1.68,0,0,1,1.55,2.09l-.31,3.24-.9-.08.3-3.14c.07-.76-.18-1.3-1-1.38-1-.09-1.45.59-1.54,1.61l-.26,2.67-.89-.09Z"/><path d="M1219.54,374.81l.9.09.14-1.49.9.09-.15,1.49,1.15.1-.07.71-1.14-.1-.29,2.95c0,.49.06.75.53.8a2.25,2.25,0,0,0,.45,0l-.06.66a2.55,2.55,0,0,1-.78,0c-.81-.07-1.13-.51-1-1.35l.3-3.16-.9-.09Z"/><path d="M1227.62,378.12a2.43,2.43,0,0,1-2.7,2.42,2.39,2.39,0,0,1-2.13-2.86,2.42,2.42,0,0,1,2.7-2.42A2.38,2.38,0,0,1,1227.62,378.12Zm-3.91-.36c-.1,1.1.39,2,1.32,2.05s1.56-.62,1.67-1.76-.35-2-1.32-2.07S1223.82,376.61,1223.71,377.76Z"/><path d="M1232.93,380.72c-.15,1.62-.93,2.47-2.62,2.31s-2-1-2-1.74l.92.08a1.17,1.17,0,0,0,1.19,1c1.18.11,1.54-.59,1.65-1.75l0-.41a1.59,1.59,0,0,1-1.71.73,2.23,2.23,0,0,1-1.91-2.69c.16-1.65,1.24-2.56,2.5-2.44,1,.1,1.37.59,1.45.94,0-.23.09-.56.11-.67l.84.08-.15,1.46Zm-3.51-2.45c-.1,1.06.4,1.84,1.25,1.92,1.11.11,1.51-.59,1.62-1.71s-.14-1.84-1.25-1.94C1230.08,376.44,1229.52,377.18,1229.42,378.27Z"/><path d="M1235.18,379c-.09,1,.38,1.81,1.26,1.89a1.19,1.19,0,0,0,1.32-.66l.91.09a2.13,2.13,0,0,1-2.33,1.3,2.32,2.32,0,0,1-2-2.81c.14-1.5,1-2.62,2.61-2.47a2.18,2.18,0,0,1,2,2.59c0,.16,0,.28-.06.42Zm2.83-.35a1.33,1.33,0,0,0-1.19-1.62c-.91-.09-1.37.49-1.55,1.36Z"/><path d="M1239.64,376.73l.9.09.14-1.49.9.08-.14,1.49,1.14.11-.07.71-1.14-.11-.28,3c0,.49.05.75.52.79a1.74,1.74,0,0,0,.46,0l-.07.65a2.54,2.54,0,0,1-.78,0c-.81-.08-1.13-.52-1-1.35l.3-3.16-.89-.09Z"/><path d="M1246.83,379.84c.49-.45,1.74-1.51,2.51-2.19l1.07.11-2.14,1.78,1.88,3.28-1.05-.1-1.5-2.69-.85.66-.17,1.79-.9-.08.7-7.31.89.09Z"/><path d="M1255.45,380.77a2.43,2.43,0,0,1-2.69,2.42,2.67,2.67,0,1,1,2.69-2.42Zm-3.91-.36c-.1,1.11.39,2,1.32,2.06s1.56-.63,1.67-1.77-.35-2-1.32-2.06S1251.65,379.26,1251.54,380.41Z"/><path d="M1256.74,379.67c0-.43.08-.89.11-1.3l.86.08c0,.15,0,.53,0,.78a1.63,1.63,0,0,1,1.6-.75,1.43,1.43,0,0,1,1.35,1,1.81,1.81,0,0,1,1.74-.75c.85.08,1.59.64,1.46,2l-.31,3.31-.89-.08.31-3.21c.06-.59-.1-1.22-.91-1.3s-1.27.51-1.36,1.4l-.28,2.9-.87-.09.3-3.18c.06-.65-.07-1.24-.89-1.32s-1.29.54-1.39,1.5l-.26,2.79-.89-.08Z"/><path d="M1265.4,380.5c0-.44.08-.9.11-1.31l.86.09c0,.15,0,.52,0,.78a1.62,1.62,0,0,1,1.6-.75,1.43,1.43,0,0,1,1.35,1,1.77,1.77,0,0,1,1.74-.75,1.6,1.6,0,0,1,1.46,2l-.31,3.32-.89-.08.31-3.21c.06-.59-.1-1.23-.91-1.3s-1.27.5-1.36,1.4l-.28,2.89-.87-.08.3-3.18c.06-.65-.07-1.25-.89-1.33s-1.29.54-1.39,1.5l-.26,2.8-.89-.09Z"/><path d="M1274.46,382.75c-.09,1,.37,1.81,1.25,1.89A1.19,1.19,0,0,0,1277,384l.9.09a2.1,2.1,0,0,1-2.32,1.3,2.32,2.32,0,0,1-2.06-2.81c.15-1.5,1-2.62,2.61-2.47a2.18,2.18,0,0,1,2,2.59c0,.16,0,.29-.05.42Zm2.82-.35a1.33,1.33,0,0,0-1.18-1.62c-.92-.09-1.38.49-1.55,1.36Z"/><path d="M1279.41,381.9c.07-.7.1-1.1.12-1.37l.88.09c0,.14,0,.53-.07,1a1.86,1.86,0,0,1,1.86-1l-.08.87a1.64,1.64,0,0,0-1.93,1.68l-.23,2.45-.9-.08Z"/><path d="M1283.28,386l.13-1.37.89.08-.13,1.37Zm.31-2.33.21-3.39.12-1.22,1,.1-.11,1.22-.43,3.36Z"/></svg>
